<mxfile host="Electron" agent="Mozilla/5.0 (Windows NT 10.0; Win64; x64) AppleWebKit/537.36 (KHTML, like Gecko) draw.io/24.7.8 Chrome/128.0.6613.36 Electron/32.0.1 Safari/537.36" version="24.7.8">
  <diagram name="Page-1" id="gSTD4Ky9tV5CqMNZMUcq">
    <mxGraphModel dx="1036" dy="614" grid="1" gridSize="10" guides="1" tooltips="1" connect="1" arrows="1" fold="1" page="1" pageScale="1" pageWidth="850" pageHeight="1100" math="0" shadow="0">
      <root>
        <mxCell id="0" />
        <mxCell id="1" parent="0" />
        <mxCell id="uMuDwe3NmUnjVeyT4cjW-1" value="&lt;h1&gt;&lt;font face=&quot;Courier New&quot;&gt;Setup Instruction&lt;/font&gt;&lt;/h1&gt;" style="text;strokeColor=none;align=center;fillColor=#666666;html=1;verticalAlign=middle;whiteSpace=wrap;rounded=1;fontColor=#FFFFFF;labelBackgroundColor=none;" vertex="1" parent="1">
          <mxGeometry x="40" y="20" width="740" height="30" as="geometry" />
        </mxCell>
        <mxCell id="uMuDwe3NmUnjVeyT4cjW-8" value="&lt;font style=&quot;font-size: 14px;&quot; face=&quot;Lucida Console&quot;&gt;If Arduiono IDE not configures for Xiao ESP32C3 then follow the instruction from&lt;/font&gt;&lt;div style=&quot;font-size: 14px;&quot;&gt;&lt;font style=&quot;font-size: 14px;&quot;&gt;&lt;font face=&quot;Lucida Console&quot;&gt;https://wiki.seeedstudio.com/XIAO_ESP32C3_Getting_Started/&lt;/font&gt;&lt;br&gt;&lt;/font&gt;&lt;/div&gt;&lt;div style=&quot;font-size: 14px;&quot;&gt;&lt;font face=&quot;Lucida Console&quot; style=&quot;font-size: 14px;&quot;&gt;Then open the project&amp;nbsp;MeshESPC3Slave.ino . Asume that the HMI is noda A. So&amp;nbsp;&lt;/font&gt;&lt;/div&gt;&lt;div style=&quot;font-size: 14px;&quot;&gt;&lt;font face=&quot;Lucida Console&quot; style=&quot;font-size: 14px;&quot;&gt;transponders are B, C, D, E, F, G, H, I node as each HMI supports 8 nodes right&amp;nbsp;&lt;/font&gt;&lt;/div&gt;&lt;div style=&quot;font-size: 14px;&quot;&gt;&lt;font face=&quot;Lucida Console&quot; style=&quot;font-size: 14px;&quot;&gt;now. Before uploading the code, specify Node name in the source code at line 57&lt;/font&gt;&lt;/div&gt;&lt;div&gt;&lt;div style=&quot;color: rgb(78, 91, 97); background-color: rgb(255, 255, 255); font-family: Consolas, &amp;quot;Courier New&amp;quot;, monospace; font-size: 14px; line-height: 19px; white-space: pre;&quot;&gt;&amp;nbsp;&lt;span style=&quot;color: #d35400;&quot;&gt;doc&lt;/span&gt;[&lt;span style=&quot;color: #005c5f;&quot;&gt;&quot;name&quot;&lt;/span&gt;] = &lt;span style=&quot;color: #005c5f;&quot;&gt;&quot;C&quot;&lt;/span&gt;;&lt;/div&gt;&lt;/div&gt;&lt;div style=&quot;color: rgb(78, 91, 97); background-color: rgb(255, 255, 255); font-family: Consolas, &amp;quot;Courier New&amp;quot;, monospace; font-size: 14px; line-height: 19px; white-space: pre;&quot;&gt;Save the file and upload it to the transponer ESP32C3.&lt;/div&gt;" style="rounded=0;whiteSpace=wrap;html=1;align=left;" vertex="1" parent="1">
          <mxGeometry x="40" y="120" width="740" height="160" as="geometry" />
        </mxCell>
        <mxCell id="uMuDwe3NmUnjVeyT4cjW-9" value="&lt;div style=&quot;background-color: rgb(255, 255, 255); font-family: Consolas, &amp;quot;Courier New&amp;quot;, monospace; font-size: 14px; line-height: 19px; white-space: pre;&quot;&gt;&lt;span style=&quot;color: rgb(78, 91, 97);&quot;&gt;&amp;nbsp;&lt;/span&gt;&lt;font color=&quot;#d35400&quot;&gt;Upload Transponder Firmware&lt;/font&gt;&lt;/div&gt;" style="rounded=1;whiteSpace=wrap;html=1;" vertex="1" parent="1">
          <mxGeometry x="40" y="90" width="370" height="30" as="geometry" />
        </mxCell>
        <mxCell id="uMuDwe3NmUnjVeyT4cjW-10" value="&lt;div style=&quot;background-color: rgb(255, 255, 255); font-family: Consolas, &amp;quot;Courier New&amp;quot;, monospace; font-size: 14px; line-height: 19px; white-space: pre;&quot;&gt;&lt;span style=&quot;color: rgb(78, 91, 97);&quot;&gt;&amp;nbsp;&lt;/span&gt;&lt;font color=&quot;#d35400&quot;&gt;Upload HMI Firmware&lt;/font&gt;&lt;/div&gt;" style="rounded=1;whiteSpace=wrap;html=1;" vertex="1" parent="1">
          <mxGeometry x="40" y="310" width="370" height="30" as="geometry" />
        </mxCell>
        <mxCell id="uMuDwe3NmUnjVeyT4cjW-11" value="&lt;font style=&quot;font-size: 14px;&quot; face=&quot;Lucida Console&quot;&gt;If Arduiono IDE not configures for Xiao ESP32S3 then follow the instruction from&lt;/font&gt;&lt;div style=&quot;&quot;&gt;&lt;font style=&quot;&quot;&gt;&lt;font face=&quot;Lucida Console&quot;&gt;&lt;span style=&quot;font-size: 14px;&quot;&gt;https://www.youtube.com/watch?v=lkN_amp8X2Q&lt;/span&gt;&lt;/font&gt;&lt;br&gt;&lt;/font&gt;&lt;/div&gt;&lt;div style=&quot;&quot;&gt;&lt;font face=&quot;Lucida Console&quot; style=&quot;font-size: 14px;&quot;&gt;Then open the project&amp;nbsp;&lt;/font&gt;&lt;span style=&quot;background-color: initial; font-size: 14px;&quot;&gt;&lt;font face=&quot;Lucida Console&quot;&gt;CrowPanel_Lesson6.ino&lt;/font&gt;&lt;/span&gt;&lt;span style=&quot;font-size: 14px; font-family: &amp;quot;Lucida Console&amp;quot;; background-color: initial;&quot;&gt;&amp;nbsp;. Asume that the HMI is noda A. So&amp;nbsp;&lt;/span&gt;&lt;/div&gt;&lt;div style=&quot;font-size: 14px;&quot;&gt;&lt;font face=&quot;Lucida Console&quot; style=&quot;font-size: 14px;&quot;&gt;transponders are B, C, D, E, F, G, H, I node as each HMI supports 8 nodes right&amp;nbsp;&lt;/font&gt;&lt;/div&gt;&lt;div style=&quot;font-size: 14px;&quot;&gt;&lt;font face=&quot;Lucida Console&quot; style=&quot;font-size: 14px;&quot;&gt;now. Now upload it to HMI board.&lt;/font&gt;&lt;/div&gt;" style="rounded=0;whiteSpace=wrap;html=1;align=left;" vertex="1" parent="1">
          <mxGeometry x="40" y="340" width="740" height="120" as="geometry" />
        </mxCell>
        <mxCell id="uMuDwe3NmUnjVeyT4cjW-12" value="&lt;div style=&quot;background-color: rgb(255, 255, 255); font-family: Consolas, &amp;quot;Courier New&amp;quot;, monospace; font-size: 14px; line-height: 19px; white-space: pre;&quot;&gt;&lt;font color=&quot;#4e5b61&quot;&gt;Options for HMI upload&lt;/font&gt;&lt;/div&gt;" style="rounded=1;whiteSpace=wrap;html=1;" vertex="1" parent="1">
          <mxGeometry x="39" y="530" width="370" height="30" as="geometry" />
        </mxCell>
        <mxCell id="uMuDwe3NmUnjVeyT4cjW-13" value="&lt;font face=&quot;Lucida Console&quot;&gt;&lt;span style=&quot;font-size: 14px;&quot;&gt;The Library version must maintain for ESP32 board 2.0.17.&lt;/span&gt;&lt;/font&gt;&lt;div&gt;&lt;img height=&quot;308&quot; width=&quot;343&quot; src=&quot;data:image/jpeg;base64,/9j/4AAQSkZJRgABAQEBLAEsAAD/2wBDAAEBAQEBAQEBAQEBAQEBAQEBAQEBAQEBAQEBAQEBAQEBAQEBAQEBAQEBAQEBAQEBAQEBAQEBAQEBAQEBAQEBAQH/2wBDAQEBAQEBAQEBAQEBAQEBAQEBAQEBAQEBAQEBAQEBAQEBAQEBAQEBAQEBAQEBAQEBAQEBAQEBAQEBAQEBAQEBAQH/wAARCAE0AVcDASEAAhEBAxEB/8QAHwAAAQUBAQEBAQEAAAAAAAAAAAECAwQFBgcICQoL/8QAtRAAAgEDAwIEAwUFBAQAAAF9AQIDAAQRBRIhMUEGE1FhByJxFDKBkaEII0KxwRVS0fAkM2JyggkKFhcYGRolJicoKSo0NTY3ODk6Q0RFRkdISUpTVFVWV1hZWmNkZWZnaGlqc3R1dnd4eXqDhIWGh4iJipKTlJWWl5iZmqKjpKWmp6ipqrKztLW2t7i5usLDxMXGx8jJytLT1NXW19jZ2uHi4+Tl5ufo6erx8vP09fb3+Pn6/8QAHwEAAwEBAQEBAQEBAQAAAAAAAAECAwQFBgcICQoL/8QAtREAAgECBAQDBAcFBAQAAQJ3AAECAxEEBSExBhJBUQdhcRMiMoEIFEKRobHBCSMzUvAVYnLRChYkNOEl8RcYGRomJygpKjU2Nzg5OkNERUZHSElKU1RVVldYWVpjZGVmZ2hpanN0dXZ3eHl6goOEhYaHiImKkpOUlZaXmJmaoqOkpaanqKmqsrO0tba3uLm6wsPExcbHyMnK0tPU1dbX2Nna4uPk5ebn6Onq8vP09fb3+Pn6/9oADAMBAAIRAxEAPwD+4Cug0L/l6/7Yf+1q2n8L+X5o8ul/Ej8//SWdBXF/8K3+Hf8A0IXgv/wltD/+QayTa2bXo2vyOqUITtzRjK17c0U7X3tdO17K/oH/AArf4d/9CF4L/wDCW0P/AOQaP+Fb/Dv/AKELwX/4S2h//INPnn/NL/wJ/wCZPsaX/Pqn/wCAR/yD/hW/w7/6ELwX/wCEtof/AMg0f8K3+Hf/AEIXgv8A8JbQ/wD5Bo55/wA0v/An/mHsaX/Pqn/4BH/IP+Fb/Dv/AKELwX/4S2h//INH/Ct/h3/0IXgv/wAJbQ//AJBo55/zS/8AAn/mHsaX/Pqn/wCAR/yD/hW/w7/6ELwX/wCEtof/AMg0f8K3+Hf/AEIXgv8A8JbQ/wD5Bo55/wA0v/An/mHsaX/Pqn/4BH/IP+Fb/Dv/AKELwX/4S2h//INH/Ct/h3/0IXgv/wAJbQ//AJBo55/zS/8AAn/mHsaX/Pqn/wCAR/yD/hW/w7/6ELwX/wCEtof/AMg0f8K3+Hf/AEIXgv8A8JbQ/wD5Bo55/wA0v/An/mHsaX/Pqn/4BH/IP+Fb/Dv/AKELwX/4S2h//INH/Ct/h3/0IXgv/wAJbQ//AJBo55/zS/8AAn/mHsaX/Pqn/wCAR/yD/hW/w7/6ELwX/wCEtof/AMg0f8K3+Hf/AEIXgv8A8JbQ/wD5Bo55/wA0v/An/mHsaX/Pqn/4BH/IP+Fb/Dv/AKELwX/4S2h//INH/Ct/h3/0IXgv/wAJbQ//AJBo55/zS/8AAn/mHsaX/Pqn/wCAR/yD/hW/w7/6ELwX/wCEtof/AMg0f8K3+Hf/AEIXgv8A8JbQ/wD5Bo55/wA0v/An/mHsaX/Pqn/4BH/IP+Fb/Dv/AKELwX/4S2h//INH/Ct/h3/0IXgv/wAJbQ//AJBo55/zS/8AAn/mHsaX/Pqn/wCAR/yD/hW/w7/6ELwX/wCEtof/AMg0f8K3+Hf/AEIXgv8A8JbQ/wD5Bo55/wA0v/An/mHsaX/Pqn/4BH/IP+Fb/Dv/AKELwX/4S2h//INH/Ct/h3/0IXgv/wAJbQ//AJBo55/zS/8AAn/mHsaX/Pqn/wCAR/yD/hW/w7/6ELwX/wCEtof/AMg0f8K3+Hf/AEIXgv8A8JbQ/wD5Bo55/wA0v/An/mHsaX/Pqn/4BH/IP+Fb/Dv/AKELwX/4S2h//INH/Ct/h3/0IXgv/wAJbQ//AJBo55/zS/8AAn/mHsaX/Pqn/wCAR/yD/hW/w7/6ELwX/wCEtof/AMg0f8K3+Hf/AEIXgv8A8JbQ/wD5Bo55/wA0v/An/mHsaX/Pqn/4BH/IP+Fb/Dv/AKELwX/4S2h//INH/Ct/h3/0IXgv/wAJbQ//AJBo55/zS/8AAn/mHsaX/Pqn/wCAR/yD/hW/w7/6ELwX/wCEtof/AMg0f8K3+Hf/AEIXgv8A8JbQ/wD5Bo55/wA0v/An/mHsaX/Pqn/4BH/IP+Fb/Dv/AKELwX/4S2h//INdPp2m6dpFnDp2k2Flpen2/mfZ7HTrWCys4PNleeXyba2jigi82eWSaTYi75ZHkbLuxKcpPeTfq2/zHGnCLvGEIu1rxik7drpLTRG3pv8Ax+w/9tP/AEVJRSOiGz9f0R5jXQaF/wAvX/bD/wBrVtP4X8vzR51L+JH5/wDpLOgorE7AooAKKACigAooAKKACigAooAKKACigAooAKKACigAooAKKACigAooAKKACigAooAvab/x+w/9tP8A0VJRQaw2fr+iPMa6DQv+Xr/th/7Wrafwv5fmjzqX8SPz/wDSWdBRWJ2BRQAUUAFFABRQAUUAFFABRQAUUAFFABRQAUUAFFABRQAUUAFFABRQAUUAFFABRQBe03/j9h/7af8AoqSig1hs/X9EeY10Ghf8vX/bD/2tW0/hfy/NHnUv4kfn/wCks6CisTsCigAooAKKACigAooAKKACigAooAKKACigAooAKKACigAooAKKACigAooAKKACigC9pv8Ax+w/9tP/AEVJRQaw2fr+iPMa6DQv+Xr/ALYf+1q2n8L+X5o86l/Ej8//AElnQUVidgUUAFFABRQAUUAFFABRQAUUAFFABRQAUUAFFABRQAUUAFFABRQAUUAFFABRQAUUAXtN/wCP2H/tp/6KkooNYbP1/RHmNdBoX/L1/wBsP/a1bT+F/L80edS/iR+f/pLOgorE7AooAKKACigAooAKKACigAooAKKACigAooAKKACigAooAKKACigAooAKKACigAooAvab/wAfsP8A20/9FSUUGsNn6/ojzGug0L/l6/7Yf+1q2n8L+X5o86l/Ej8//SWdBRWJ2HxJ+2t+3B4J/Yz8N+CzfeEPE3xT+KPxT15/DHwo+EfgwAeIPGWsxNZxT7rn7NqEthpsNzqWl6eZrPSta1S61PVdOs9O0a+MlzJaeUfsu/8ABRe5+MvxlvP2cvjt+zt4/wD2U/jpL4ZuPGvhTwd411T/AISLS/GfhezWR7u60TX38O+ErmTUIIbe/ujZroU1jJbaVq4i1d73TbqyjrCqOIp4utUmsPRorMFhKs4ylDHVcnwX9oZrTpSjGyeEwyqKMYOtWqYihiKUqNKnRlXOfHV/qcsNFU54h1FhKmMVOyeAw+Y45ZbgKtW+7r4uUHKM/ZQjhqlOtSq16kvq6+cdI/4LDePPiLrnizVvgH+wL8dfjh8EfBvjGbwfq3xT8I6xNLrLXNqLeS6ntfh/pvgXXcyLaXVtqUdldeLbSWHTbu0utYfRzM8UPvv7UX/BS2D9mT9oz4a/s93X7P8A47+I+rfFD4WxeOPD3/CEaxBfeNJvF2p6j4o0fQPh7b+BYdDu7a9lvtU8PRQaj4ih8XJBpNve3F4ul6hDp2LzRYeu6OWqUFDMcylOlDLZN+1hiJ5JWzjB01VUXGpSxM44fByxKjGlTeI9tReK9hWpRdSv7KrmznCSwWUrmrY3/l3KGHzzCZNmF4NLkqYaFevi6NLnnLEfVZUajwqq06xb/Y//AOCjo/aS+MXj79nD4qfAfxp+zH8efBejSeJIvA3ivW4/EY1bw7GNME95balc+GfCc9tq0EesafqUWmyaHd2F9o066pYatfQx3UMH5W/tk2/xJ+CXiX4iQp/wVw/aG8ZftZ6f4g025+H37N3gXwr4y0y01+98QzWGqeEPB03gbwDq03guS61Hw/qFrcy38fh6z0K5mljtm0CWWaK0uIq054fE5biMA45tPMcuWIyzBKnJwxNSWLhRnzQvKlG9WlWw3tMXGtClCph8VyYdrF4WtnTqrFYbMKOL58qjl+MjDMsW5Xlh8J7GnONWFROnUUJQx2Dr3ouEpSVShCVaEqGKj+nfir4Lft/ftIfs7/sv6Rd/tKT/ALL3jS88J291+1Bc+GPCsEXxF1PU59MtrnTG8O6poF/pY8O63DcwC28RaRomq+F7CC81W/u0ubq30m38M3XzJ+wv48/aE+En/BRL43fsReKf2ifHH7U/wr8H/DZfGsvjL4iXF3r3ijwd4neHwZdR6dc+Ib/VPEGpW2z/AISOfQ7/AEe51t9Pluktry007S72O9t5O6ksJTzrM8vpwhiqOKXE+Kw9WNSc44fBZbRlXyueGUpT9nTotUKGIqQm5YuVWnVqSUK1SguGTxs8pyzH1qs8JWw0OHKNai48ksTjcwxeGwmZUsSpciqVatOviK1GjKEnhoYaq6dNVKSxEP0V/bq+I978Kfhr8MfGcHibxB4V0vT/ANo/4GJ4svvDdzrUN7eeDZPGMD+J9HubTQCdR1nTdT0uKe3vtBjgu01eI/Yns7rzFibs/A37Vnhfxf40j+HWs/Db4yfC3xxq/hnVPF3gfw78U/CGmeG7r4kaJosUc2qnwbeWXiTWdKk1fTYrizl1Lwz4h1Dw94n0uG9huNT0ezgju5bbysPUUsLmCcZzq4fN8ylDS861Khw1kWYLBYVya55xjQzHExpXjQpVKr9pOnWxtGNf3cQoxqYL3oRjUy/COolf9262eZngni66inaClUwlKc7SrTpwvTp1KWFrOje0/wDaq+GGofs13n7Uyx+I7T4e6f4b1rxBfaRe2GmxeM7W60HUbzRL/wAKzaSmsS6Yvisa/ZS6DDp/9uG0l1V4Yv7QWGQTj1bxRrN1dfC3xF4htYNV8P3tx4A1bWbe1vGis9c0S6m8O3F9FBdNp93dQ2uq6bMyxztY31xFBeQsba7mVUmbLNVOjgs59nVSngsLPkrUpyUasq1DHSp1sJVSXPGksLGpOd4ShHE4ScU/a3hrgEpYzK41aTSxOLnTqUKsYuVGWDr4GGIoYqDbjGbljFS9mnUXNQxManLyQ9p+Nf7NNz+zr43+A/ww8WfGD/gox8WfDfxN13wzBfeM9Cv/ANvXUPCt5pmsPc3KS2tx4e1HxnHfaTIsSQt9kuUWVQwYjDg1+jMfxd+GfwB+H3wn8L+GfEHxU/aNvviI+uP8LI9B8RJ8afiL8SLGCSXxHrWtReN9c17T9EvvD3h6x1OEtr2ueKdP0mw0r+zrC2u5SttA3p4xxo1cVRwtH6xQlmEaFCpTjCrNRVSuqTjiG4whR+rqricRUc40/q2GqYmb9nh5Sj52F569LCSxNRYev9UeKq05qVLWGHUq8XRhB1ZuM5qEKUYTm686NOMXUnCLgm/bV+GGn/Cz4t/E/wAQ+Fvif4Ul+Bl/pWnfFD4c+JvDGm6X8RvDU+uT6cmjzHT28QSeGdU0/U7TU7fVLDVNI8VX+m3mmpNNbXUsqpBJZ8Gftj+APFni3wV4Y1LwJ8Yvh5Y/FKW4g+E3jf4j+Bo/Dvgr4l3MVpPqNtZeH9Rh1nUtU0jUdX0m2n1bQtM8caN4R1HW9PQS6Za3MkkUT89KKrVo0qc4yU6eDnGt70aMp5lhXistw95xjUWIzCMatHDUpU03iqUsPUdOrUoKttUbpUJV6kXDlqYyMqLcXW9nl0qKx2JSjKUJ4bC08RRr1KsJyvh6ka1OM4Xau+F/2tfCXjX4i+Kfhz4T+HHxf1yfwF4/1j4d/EDxfa+GtAg8B+CNU0gB/wC09c8Q3/i2087SL6ASXUC6HZ6xrVjaJFc69o2jQ3+mPfcjF+3f8KpYI/FI8EfGZPgtLrq6BH+0XL4Dhi+C5ne9Glpqzao+uL4xj8ItqzDS/wDhOJfBSeDlu8l9cW3BuKzw8liaeDqR/dwxdDC4i9X3VhaWPhhZ4GWLceaNH659aaw9nNSjhMfiJOOFwVfEQ0qwnTq4miourVw9ethowo+/LFV8NUxNPEUsHHSVedD6upVYpRcZYnB4azxmJpYZ9r49/ar8NeEfGXiTwH4X+GXxl+M/iDwRpOlaz4+j+EHhTRdes/BNpr1idV0ODWL3xD4p8Kwahq+r6SG1Ww0Dws3iHXJrAJMdOXz7dZo9U/a9+F6eFPhT4l8G6V49+KmofGyx1HVPht4J+HvhlLrxlrem6FHA3iW/vLPxLqPhjRvDln4YkuYLXXLjxNrmjxW97KlpA1zOdlEZSnT5406ntHWo0o4dpRrzp4h4t08WozlGCwjoYHFYx1ZTjKOCpxxTgqNajKoOMeaC9pTdKdCdf6zGTlh4uFHD1lQc4puVeosVRpUYU4zVbEOphqcpV6NanT8q+J/7Tvww8dfAP4ka9q9x+0X8JLj4d/ED4feEPiB4d8Kwab4B+Ong3xBq/jDwq2g2Ylu9Vu/D83h/xGmp6c+o6jpGvapput+D73VItOvJ7h/JHm6/ETxt8T/+CgmvfDzW9D/aV0LwL8KvCngu78P6R4R8X6P4N8B/2zP4m8TXV18RfiVZeGfiHY6l4w8C+LYNC0/SfDOlala67NLaLew674M0mK7mkbbDL/a8rtKlVw9XMMZiY1anNKlV/wCMXweZYanUjKKc8BCGJweZSwtalq6OaxqU5VJ0aFfOq7YPMptOFajh8JQ9krOpG+fTwdedKUW4LEVPY4jAwxFOqmpYnATpzjTVWvQ/USisygooAKKACigAooAKKACigAooAvab/wAfsP8A20/9FSUUGsNn6/ojzGug0L/l6/7Yf+1q2n8L+X5o86l/Ej8//SWdBRWJ2H893/Bb74D+LvFXir9mD4+Dw58TvE3wf+Fupa7onxjk+DDwx/Evwd4d1bVvD+rN4p8PTXVjqlnYS/YdO1SGDWdQ09tH03VLXTIdXubWHUoJ4/KP+CcPgf8AYF+IX7Xfgzx7+z34w/b3+I/xF+GHhLxV4i/4SP42S/D7UPhnollqOh6l4Vn8N+I9T03wva+IE1a5h8V3l1oWn2F3b6dPfQS3J1CZYZbS63yWt9VwOLp0KVOtjstq8TYnFxrxi4xwOYUcZmGHqYRKUK0qmJo4nE4GMlF06mOpxw6coU68o+ZncITxkKuIlWjhMzweS4KjLDfxHiqFSjldehiJSTptU5QwuOpwSbpYepKpP3p0Iz+PvjV8ePgDofxHuvHn/BNuy/bG/Z5/a+8Q/EO0tfE/wG0/wzHL4C8ZXQ1K9uNX/tnwLb674nW4UajcyS6b4ba21bw8xk+yr4I0VJ3vrP7C/bZ+LHiP4T/8FS/2EPi9458BeJfE3iHwt+zNpPiL4i+Cvhxph8Q6/aSy2/xjXx7N4e0xZ4/7Th8JQ3Ws61JF9qjEul6PcN9oQfvRtgGsLS4er4upTnhsHm+I/szFRkqtapw/T4TzGvip4ialaay6yWHbavRbqTqV61SvWd49Sq1uLsNhISlVr5HNZpS5rUHnS4oyrDYapQV5KEcwoqrVnKycpRUY06VGjQoUuw/Zb+IUv7an/BVLxn+2l8KvAnjWw+A/wl+Cl/4QXxN4g0T+yJ/FfiVPDs2jW+jRRRzXkEutXkur6nc2+nRXdzd2mkaJYT6olhNe2to3kf7Z/wC3R/wT+/aj+GXxO8JaR+yH4/1H9sHx/pK+GPDcutfAfwppXxg0PxzaQQaX4fvNX8ZaJqt/4vu7fQTZ2lrDo9pc6pdajZ29roVxo0VlLPFa8lfB4qWHy/K8O1TzqjlFTF0XCoozo1M74gzzMPZ06kH7StDBRr4Gri4U4ShisPiMM3SnDEU6U3hsbhqVfMszrKpVyrF5rSoV3KmnTnSynI+H8HUVSM5Km4YjE4PExoc84ulicJUU3Tq0KkqPffFf9uD45f8ABPP/AIJ+fsxfAnxZFq8f7WnxG+H2tGPxD4xjmv1+D/gU+JdSg0O81uKYX11qvjDw54a1DR9B0fQJIbpNHudJuJtaglGl2uh6v6j/AMEnP2jP2FfDGu2XwI+EXiD4o/EL9pD40z6z4u+KPxc8feC5NOv/AB94m0jSdV8T6u9xq1zrGo3en6FYrHq82i6bNJd3E95d3N/qd1darqV5dt68Y/X8fxJmGCSqyxmOzbA4WqpwVKhlWVYrE18zrQfPeNbMsdg5JfV3KlWwGFw0KkIylHl832v1HB8PYHGxqUaWEwmAx1ejKMnVeNzGjQp5RhK6kr1IZZgMVGdWdWMascfXdSLlKjO/6Hf8FDtbh8NfCj4T+IrnSdU1+30H9qP9nvWJ9D0TTZtY1nV4dN8c295Lpuk6Tbxy3GqalepC1vY6fBFJNeXMkVvEjPIqnjte+KHgz9qb9pb9l0fAnVZfG2ifBTxD45+JHxQ8c6VpuqWuheD7HVfAWp+E9G8EajquoWFoieLfEuqayn23wiGGr2FhpV3c6tZ2q22F8TAL2yqUoaSw3FVXMK8npH6rg8j4Wxs4TbS5qeI+oyy98rko4jH4WjVUPrVH2n0uMfs4RlJSUcRw3VwNKUbNvE43MM/wNKO6cXCWMjiZJ2lLC4fGVaMajw1WMfG7zwTrkP7TmtfsVx6dd/8ACrvGXxy0b9s6Wf7O50pfhfbwzeIvFXg0kBoIrSf9obQtAX7EGVWsNdnwixsUP6r/ABI/5J349/7EvxT/AOmO+rixq5OGqtP4o/2diFCpblUlluR5dwzXSj9mLx3DuMrQ0V41lKyTOrD65/TklyXxeFqVIWtFVsyzPGZ/zQenNGOEzrB4Zy5Y3nhpqMVTUG/x3/Y5/aN/4J8eFP2Yfgv4d+J/if4IWfj/AEjwbbWniq18ReDLO/1uHVVu7xpU1K8k8NXb3Fz5bxlpGuZiVK/Occe1ftC+Of2ZfiZ4c/Z/8aWOreLPC3wVs9X8caJ4W/ax+AninWPAcvwD8Rw21hpi6HdRaX4WvLaw8J+O2t7jw9qGpavap4b0+8021t76BUu47qH2MxcauOxNSjWlQwyzKVeOKpTUIYfmxM6OBqSTSj7DEYnEYfAVnO1KnhcbWniGsNGun5WXKdHDYWNSiqmLeAdB0KsJOdd/VObG0IyinN11hqWIrUYwvOtiaFKnBqc4VI/PXxC+JHxG8Vfsq/traTffEjVP2k/gd4OsfhSvwm+L+ueC7Lw3feM7278W6ZJ4w8GQavotjpOk/EOz8PyWelWsni3TdLX7Xe6ncwve3A8mG2+lPi/8ZPAP7VV7+zv8KPgpNquv+ONH+O3ws+KHjrTP+Eb13Sb74J+Ffhrfz614ll+IR1LT7UeC/EAeEeFNN0HUJ7bVtU1HUDb2MVxaM0smdJSq4zAxlT+q4mjmnDua4ulFOmpYfB1sHmGOxdOEnekqGCwTxeJwknz4KtmWHy2mqmIqU6L3qOFLC4qcK0sRhJYbiPAYapJ88qeIxmV4HCUcI5rl9rPEZhiamAp4nk5MVSy1YzmlR560ur+BPhXUfF3w8/4KB+FPD066d4g8Y/tF/tGeH9M1BWSFoNY1jwR4c0fTLuSZ0kVfs881ufMeORY0jBKMAVPwRY6n4Ii/Ze0n4FeIvjt+1xq3xoHgnSvhBrH7FOkx/C/QPEt74iTT7bQL7wxpqX/7O+uarpnw9aBZdTtPiBdaprGnQ+Ggl5LrmoauGgl46NL22Hw2E5XVrZjwtwJQw+EclCni40cmqYbFOpUcH7JYV5rg5TmqkZQwtfGYn2VWlhKs6HXKt7PEVa7lCjSwPEnF1TE42UHUng41s1pVMPNU4y5qkJRy3FPljSnKdelhsPGSrYmjSr+7/Eiz+FPw6+LviCHxl8XfjF+xL8TdE8AfDe08M/FHR/Gw8SeAv2j9M8OeC7HRob7xP4Z1PwGPBHjbxf4BvIpfDN34ctbXTtf1WNrXU7C3W1vorWzreJfFF546+FP7Lfjj9sKP4p/CPXZ/+FmWtl+1v8NdR1n4O+JvhvcNrcen+Em8aeFrPQdZsvCujfG3wlp+nahfnxDBBoFhfQrYvpmmW+oq0PTVrKu5V3XUaE8eqtDMUnRllePxNTHQnlDhPndfAVsVz5by1pKjgcv9lUlV/s7H03Lko0p0KeHpKhz4mGBpUKuAm/bQzDK8Pl+HvjXOEYQhj8Lh/YTbw/v4vHurRw9OeKwUq1Lz74k/EP4l+NP2Xv2mdK1n4man8d/g34U+J37N1p8GvjnrPgyx8I33jVL34meFJfGOjQ3elWOk6V4007wjfwaZYxeM9P0xYNXvrvUCL66SOOG0+9/h7/ykL/aQ/wCzfPgN/wCn/wCINaxu6mWzlRVCrUzHN6tejFOChXq+HOEnWfs5a0HUqSlVlhn/ALrKcsNaPsuVZT5FSzONKq61CGGyaFCrJqUnBcW4fmpuorKusPW9rhYYpJLF06EMVHmjWUpfddFYGoUUAFFABRQAUUAFFABRQAUUAXtN/wCP2H/tp/6KkooNYbP1/RHmNdBoX/L1/wBsP/a1bT+F/L80edS/iR+f/pLOgorE7AooAK/Mr4z/ALGHxR+Iv/BSD9mv9sHRNe8A2vw0+Dnw+vfCfifQ9V1TxDB46vtRuY/iaiTaDplp4WvtAurIHxppe+TUPE2lzgW+oYtmMVuLrTDTVHMctxc7ulg8TXrVYx1nKNXLcfg4qmm1FyVXFU5SUpQSpqbTclGMpxCdbLM3wUdKuYYGGFoylpTjUjj8Dim6rV5Rh7PDVIpwhOXO4Ll5XKUf01orMoKKACg9Dzj39Pek02mk+VtNKVk7NrR2ejtvZ6PqB85fCD4G+JfBPjnxx8U/ib8TpPi58R/F2naT4T0/XR4N0rwNpfhL4eaBe6lqml+EtF0PTNQ1fMlxq+r32q+IdZn1Eya3eLp5FlYQ6dBDX0bV3XssPSS5Y0KEadk3aVacp18ZWSbfIsVjq2JxbpJuNKVd0oNwhFhL3q2IrPevVUtbXjSpUqWFwlJtJc7w+Cw+Gw7qWi6rpe1lGMptIoqQPGP2hfhD/wAL4+D3jL4T/wDCQ/8ACK/8JdBpMP8Ab/8AZP8Abn9n/wBl6/pWubv7K/tPR/tfn/2Z9lx/aVt5Xn+fmTyvJk9ljXYiJnOxFXOMZ2gDOMnGcdMn60orlU1vzVXU9L06dO3n/DvfTe1tLsevs/8Ap37b5+19h93L7HzvzdOXV1FMAooAKKACigAooAKKACigAooAKKACigAooAvab/x+w/8AbT/0VJRQaw2fr+iPMa6DQv8Al6/7Yf8Atatp/C/l+aPOpfxI/P8A9JZ0FFYnYfFn7WPxl8deCfFPwH+EHgDxh4W+FWr/AB68TeK9Dn+MPjPR7XX9K8D2nhTQYNXSx0bRdT1DS9D1Txr4rvbyz0rwzZ65dSadK6XqmxvblrZEqeGX/ao+Dnxd+HfhXx3461D9pn4T/E9/EGlap4zi+FGjeD/FXwe8QaPoz6xo1/r1x8PLa38L33grxMbe60drrVdH029sNXk02OLUpxIba8WHajetX/fUMRiq2CUaSk5Ze6dGlGhUqci5nXljKtKvjIVfaUqeR4jD4qlCFeXM6xCShCFJxp1qeB/tFuT5pYq2KxcJ4VQd1GE8NgqlPBunGNapmc3TqTeHion0X4V+Nfww8afDW++L/h3xTDdfDvS7bxTd6p4hvNM1rRjpcPgm71Kx8VDU9H1vTdO13T59FutH1GO7tbzS4Loi2MkMMsUsLyebeJP2xv2dPCll4XvdX8eXznxh4MsPiJo2maJ4B+JHijxFF4F1S3S50/xZ4g8LeGfCGr+JPCOhXcL5i1DxbpWiW5dJoi4lgnSNSlGLmnKLUPqrlOLU6fJjKONxOHqxqxvTnQnhsuxuJlXhOVGlh6Eq9adOlKnOdeyqczjy+8qmLpWur+1wOIwmExNLf+JDFY7CYeMPirVq8KdFVJ3S8j+OX7a/gzwPqP7L9/4J8Sr4j8DfGfxx5ut+I/DHgPxx8QIb34eW/hnxVdOfDl14S0LV4G8Qv4o0vTNOv9Aitr/xXa2KatL/AGLZx2F9qFh7p8S/2qvgL8ItZtfDnjrx01l4judF/wCEll8PaH4V8a+Nde0rw5gEeIPEei+CPDniLU/C2hkE41fxJa6Vp5McwFwTDKEa/d0q7r/u6lPOsfl6U/dcI4PAYGrVhOOnLChVp5liKmImlTWFisVKr9Tlh6ss0nUq0FR9+nVyrCY5OOvNLEYzEUotPpKrCrl1GlR0qTxM6mHhCWJp4ilT0/E/7SnwJ8HeEfBHj7xF8TvDVj4I+I8s8HgrxbHNc6h4d12W30DVvE8iw6vplteWNrnR9D1SSJtQmtFuL62XR4DJrFza2E/n9n+3F+y9fWes3Nv8S5vt+g6lY6VqPhK48B/Eqz+IpvNSsJdVsf7O+GF54Pg+IutWlzpdvcakmpaN4Xv9OFhb3F412tvBNIlTTpzxVKacamDlyYiFm5QmqlGlKEYpN1ZwlXpyqRpc8qdJyrTUaNOpUgQtUhh6sHF08VTjWo1HKMYOlN1FCpOUmlRhKVKVOMqzpqVV06SbqVqUZ9jJ+1P+z/H8LND+NA+JmjT/AA68Taimi+HdYs7PW77U9c1+S4uLX/hGdJ8I2elz+MdQ8VR3Fpdxz+F7XQJfEFsbS7a402Jbado+k+FHx2+FPxth1+T4a+K11y68KX0Gm+KNE1DRfEXhTxR4bvbuFriyi1/wj4w0jQfFGji+hjllsJtR0i3gvkhnNpJMIJtlKnN1MTTSTlhFzVnGUZQ5f9lfNSqJuniIqOOwVRyw8qsVSxeGrNqlWpzlLnFU6NVtqGIk4U+ZNSUlKvDlq02lUoS9phsTRSrxpt18PXoK9alOEfXKKgoKKACigAooAKKACigAooAKKACigAooAKKACigAooAKKAL2m/8AH7D/ANtP/RUlFBrDZ+v6I8xroNC/5ev+2H/tatp/C/l+aPOpfxI/P/0lnQUVidh8S/tZ+Ofgpaa78NPhD+058OPDOrfAz4s/8JHayfFHxtqMNn4R8E/ELRLOKfw9ompXcthF/wAItqXiTSbrW20TxgnijQbizlsLyztzIk11cWvyNpng74W/s7ftAfs7+Hf2LPjZrmuWPj/4gf2J8RP2btL+Kk3xU+Hen/CqbRdT1DxH8Rk0y61LX9R8GXPh2W1sZbLXL3U2OrXM8OnWMnlf2jbXhgNMThatFu2MzKGAzfCpOpTjh4Yr2NetiKdly1KORunnNHGRjCNCKoudSssA1CsY5fVsTSraLD5ZiMdlWJaSn7f6tOpQhQkmnyzzmnVyuphJykqznOcaMVmFN1K3xP03VvCnxP8AjT+w7oq3NppX7XfxX8C/ErwfNa+aP7L+G/xAOpX/AO1AkD/JFbxacvw61x47WImOM+PLMBVa4RT6x4/0lNL/AGpfiJH8Cvj5bfs4fFjSvhn8MpPFvg34r+CfB3iD4QfGPwJoNjr9v4Q1LwjLdeIdI8W6VZ+DXl1Lw94t1TQrq0OnTi2hXTnWSW7us6MprA5fWjKlGrC+ChSxDcKGY4LhjI6WUuFeVJKVOMsRDiPE0a0UnSp0JtydaMKM9cRGH1nH4epCpOjOjRzCrVw8Uq2ExXEud4XMrYeHvRqOjWpZInSqxcakXOUuSnVl7Pyrw98Vbbxz4R/YP8aa54X+Gfw2sdL/AGy/iD4XvLn4bImi/CPxBe6V4P8AjHoUvjXwTJeRWipoHjbXPtF5p8tzPdXF/f3MzPe3d1OxOt4BufiR4d/aY/bStI/2i/hB8D/EmofEXSPGz2PxT+FKeK9T8S/ChPBWkW3g3xTofia9+Mfw/in8H6Fawalo93Z2tlf2mgarDfS3l5aS6qtnDpBKlUxNRSnh8NOlmcnQxcUqtOpUynw+zB5dU96lyYzAYShjXXSp80aOX469ClCNR0cZNzfLKP1ivGeChKrh3JQrxp51xlgpYy1qkqtDGY+tgZxjzybxOKwtR1KkoqUvM/ht4a0TUfDf7G01v4lvfHvhDxN/wUJ+JfjvwxrF98ObX4baDdxJ4T+JetreeB/Cn/Ca/EEReA5vGGl6hrXhO9uNTsLye0uhKdKsJI47ib7q0TSNLf8A4KOePtZawtTqtt+yJ4AtoL/yU+0xwX/xV8ZfbEWXG79+umWCOxJYx2sUYIQFTth7wqZfSVKdD2GMzKg6VRt16cqXhfluHqQxKcKbhik6bWLpOLdLE+1pOdTlc5Y1n7SOaVfaRquthsvr+1pteyqe28ScbW58PJTqKphpqpfD1VK1fDunU5YqfIviCCy8Htp2sQal8RfFPwK8Xwf8FIP2mU+Efxp0jQvCWu+B/AXji5stSt4tN+Iel+L7y10ifRfGGl3WqaRpdoIg15rRghe+sIZJmuPr39mT4jePLv8AaJ+L3wm+I03wQ+J/irwv8OvA/iC+/aA+D3hv/hHdX1ixutU1XTdH8DfFa1S8122s/FVskd/r2jaTYa6unWeizvcWmng3k0kMYJKVPA0m+elUyrL6sKququXYzCcEZLUrQn9meDx2DWEw3PzRdLFY6lTjOo61fDm2P9yrmVRRcJ0M1zGnKn8VDGYLE8e5vhsPFXs4YnA4ypiMWlHnhOhQUpRhOnTqx/QeioEFFABRQAUUAFFABRQAUUAFFABRQAUUAFFABRQAUUAFFAF7Tf8Aj9h/7af+ipKKDWGz9f0R5jXQaF/y9f8AbD/2tW0/hfy/NHnUv4kfn/6SzoKKxOwytc0HQ/E+k32geJdG0rxDoWqQNa6nouuadZ6tpOo2zkF7e+06/huLO7gYgFobiGSNiASpwK5HwJ8IvhR8LRfL8Mvhh8PPh0up+X/aS+BPBXhvwiNQ8okxfbh4f03Txd+WSTH5/mbCSVxmiH7uVSdP3J1YKnVnD3ZVKabap1JKznBNtqMm4pt6BJucI05vmhCbqQhL3oQqNRTqRi7qM2oxTmkpWjHXRHi/gn4R/FDV/j7qvxw+Ndz8NpH8JeGtf+HvwU0L4fr4iu20vwt4k1221XXvFXi7UfElrYuvjHXLPSNB0p9L0eC50jSLO21CO11O+bUZpD7Z46+E/wALPigmnRfEz4a+APiJHo8ks2kx+OvBvh3xcmlyz+WJ5dOTX9O1BbKSYRRCV7YRNJ5ce8nYuJjGKw2BozUZzwsKlSU3FWWLxONxeZV3RvdqFDE42rQw1RuNSdGlTqzjSqTlSg3KX1nGVoSlCGInThCKk1L6th8Fhcvpqq1ZSnXo4SFavBJ04VKs6MZVKdONSdzxJ8OPh54x8MQ+CPF/gLwX4q8F262S2/hHxJ4W0PXPDEC6YoTTVh0DU7G60qJdPVVWyCWii0VQIPLAArL8ZfB34R/EWDR7X4g/Cz4ceO7Xw8nl6BbeMvA/hnxPBoaBI4wmjw63pd9HpiCOKJNtksA2RxrjaigU9ZTm9Z1MRDF1JPWVTFU4uFPEzk9Z4inBuMK0m6kYtxjJLQUfdVOMfdjSozw1KMdFSw9SUZVKFNKyhRnKMZTpRtCUoxcotpHS3fg/wlft4aa+8L+Hb1vBl5HqPg9rvRNMuW8KahDp9zpEV94aM1q50K8i0q8u9MjudLNrOmn3VzZK4tp5YmsR+GvDkXiG58XRaBokfiu80i20C78Tx6VYp4hutCsru4v7PRLnWlgGpT6RaX13d3ttpsty1nBd3VxcRQpNNI7PmlzOd3zurVrOd3zOtXoLC16zlu6tbDJYerUvz1KCVGblT90lRioKmoxUFSpUVBJKCo0K31mhSUVp7KjiP39Knblp1v3sFGfvGHcfDT4cXeheIvC918P/AATc+GvF+q6hrvizw7ceFNCm0LxRrer3Ed1qus+ItIksG0/W9V1O6iiudQ1HUre5u724ijmuZpZEVhY8F/D/AMB/DfSP+Ef+Hfgnwj4C0H7RJd/2J4L8N6N4W0j7XMFE1z/Zuh2VjZfaJQiiSbyfMcKoZjgYItw5lBuCnRoYefL7vNh8NGEcNQla3NRw8adONCk7wpRhBU4xUY2qTc7Ob52q1fEpy962IxMpTxNdXv8AvsROc5V6vx1ZSlKpKTk2+uopAFFABRQAUUAFFABRQAUUAFFABRQAUUAFFABRQAUUAFFAF7Tf+P2H/tp/6KkooNYbP1/RHmNdBoX/AC9f9sP/AGtW0/hfy/NHnUv4kfn/AOks6CisTsKd5exWaguC7vnZGpAJA6kk/dUeuDk8AHnGX/bv/Tr/AOR//tNWoXV72v5GM6qhJx5b231tur9n+gf27/06/wDkf/7TR/bv/Tr/AOR//tNP2fn+H/BJ9v8A3P8Ayb/7UP7d/wCnX/yP/wDaaP7d/wCnX/yP/wDaaPZ+f4f8EPb/ANz/AMm/+1D+3f8Ap1/8j/8A2mj+3f8Ap1/8j/8A2mj2fn+H/BD2/wDc/wDJv/tQ/t3/AKdf/I//ANpo/t3/AKdf/I//ANpo9n5/h/wQ9v8A3P8Ayb/7UP7d/wCnX/yP/wDaaP7d/wCnX/yP/wDaaPZ+f4f8EPb/ANz/AMm/+1D+3f8Ap1/8j/8A2mj+3f8Ap1/8j/8A2mj2fn+H/BD2/wDc/wDJv/tQ/t3/AKdf/I//ANpo/t3/AKdf/I//ANpo9n5/h/wQ9v8A3P8Ayb/7UsW+sRTSLHJGYd5wrbw67icAMdqFQfXBAPXA5GxUyjy9b3NYT503a1na2/46BRUlhRQAUUAFFABRQAUUAFFABRQAUUAFFAF7Tf8Aj9h/7af+ipKKDWGz9f0R5jXQaF/y9f8AbD/2tW0/hfy/NHnUv4kfn/6SzoKKxOw5fWz/AKVGO32dT+ckv+Ar8/8A4iaN+1x4p8R/F/xTbfGuw/Zi+GPw8Vo/hra2/gn4Y/EFfH+naPoFtret+P8A4i6t4lGvXmheGbjUpL7RLfw5ow8IeIbPTtKuNUur5XuLSWbqo16GEVfF4qjHE0cHl+IxVLCTlVhTx2Lpzw1Olg61TDyhiKNF4eri8ZKrRnTm6mCpUOdKvaXzee4TN8whg8vyXHzymvj81w+Fxub0aGAxOKynLfq2NxNTG4TDZmqmAxNerjsNl+VSo4mhWjHDZnicVBUqmFjiKXuX7MXxS1742/s/fCT4seJ9HtNC8QeO/Bela/qun6cl3HpZu7lHRtQ0ePUGe9j0TWViXWNFju5Z7hNKv7NZbm5cG4k+Frn4t/tW+OvhT8XP2vvh98VtG0HwN8OvE/xPuPAn7Pl58OfC974f8c/D34MeIta8OeIJfGfjq8WXx5YeJvF8nhjXr7S7vw1q2kaXokY01JdK1Hz7jyvZxGHwOVZrnLxdKrisryjEYrD+x9r7OtX9nmNOguarSStUjl1PMK9KUHGn9ep4WVWFbCqth63x9TN8/wA84c4Slk2Ow2W57xDlGHzypi6eDhjcEoUclhjqmFo0MW3KOFxmb4vKsNXqTTxCyeeYUcNWwWZ1sFmOD/TrwX4p0zx14O8J+NtFffo/jHw1oXinSXLK5fTPEOl2urWDl0+Rt1rdxHcvytnK8EV8I+C/2if2g/F37Z3hb4deKPh5J8JPgnrnw3+NGq+FdC8RvpV78QPHuo/DvxV4C0SPx3rtvbwXMng7w9cp4inXwnoMWpJqeo20l5quvQG3l0NUyw+X0o5visvxtbl+qYbiFRjCMm8VjssyrMcRQo7RlSpRlhamNlVb1eEhhZQlHFScPQzriLMKeR8P5tkmDhiKGcZvwZDG4ydal7DLclz7P8kwFfEU07yxuJxP9p4fL8NSp04xhTxmIzF1qcsDTo4jD/a8tv2jPhPoXi/4peGv2zPHmhW+veIdN8OfCf4KeHvgb8BNeudX8a+LLuHR/Bnw90TXvFHhO/1u/l1LVpU8/U9Vurme1sVvr6UNFaiKvt/4LaF8TPDXwr8D6L8ZfG8PxH+KVnokJ8c+MrbRNG8PWmra/dTTXl3HY6T4f0/StJt7DShcJo1hNbadZyX1np8GoXkCXt1cCk6uEqZJD/hOoUsZTx2HwUcypV8b7XFTwWXqtmir4WtiKmFp+3eZZRiKc8PThFT+sUaapwpyhLDAYPPsNx1mPtuMM0zXJZ5Niszlw3jst4bpYTKZZ1ncqfD39n5jlmU4LOK8cvw2ScQ4CpSzTGYupWo1cHisROtiHCs/jPwl+2z4X8A/D7Ttf+I+tfFf4rXfjj9qH4zfA3wfNovwn8K6V4httc8K674wfQ/Bdv4U8HeKtTbWtMtYfDf/AAiXhjxJCbjxH4nvLjS9S8SaNoYutRn0/wBf8O/tqfC2/wBF+Mmp+OfDnxL+C+qfAfQ9M8VfETwj8VvC9lpnii08K67HqB8PeJNGg8La54u0jxDpevXOlahp2nf2PrF1ejUrb7He2dnJPa+fVbK60sPPFUYUkqeCwdanhYValXFY6o8FllbErCQlTSniEsxw+KrYZzgqcK1VYaVejha06eGW8d5cq+Cy7GvNKsqk6sMZntfLsNhsrwDnTx+LwbzGWGxVaWHhicPl+Oo0KlChiKaq4JQxs8LWx2XQxqeE/wBsHRPE+t6l4R1D4J/tBeAfHJ8B638RPBfg34geC/DWi6x8TtB8Pi0XVIPA9xZeN9V0E67aS6jpkc/h3xZrXhTWIf7QgmntIraK8ntfH/gR+3Dear+zV8O/if8AF34e/FGXx/478W3/AIM8KeFfDfhHw1fa98Vtdlv9Y1CF/hxoeg+K720Tw9omiWc9pqereL9Q8MLYtoGp3OozyRm31HUH/ZLVPFWxeDrzVXI6eBlh6tSVLEvMcwzvKsXTVSVGMIzwmMyx+0nVlQpQoYTG1qdSvCWGdSqfHXtcXhU+H+IcJhFgOI8TmscXg8DHFZZUynBcPZrl3tqFLM6tevHOcuzuhLLoZZRzCdTEY3DYfGrAV6GMp4ez8Tf20H1v4Afta3vgXw78Tfgj8dfgJ8J9U8YP4V+LPg/wzaeJNF/tLRNZu/B/i+wtrXVPHfgbxJol9eaNqEcDR6nqsInsJYdTsIo5rf7R13hr9oLWdF+O3xksfiX41tNN+Enw3/ZZ+CHxbu2vtN0i1tdC1bxHqHxN/wCE08QTahYaZHrV0L6x8N6Wq6W1zdWkL2ippGnQ3N3MLi55fSw1LFSqzpYxQoRxNDEYSVedOrSqZbi8XB0oShRrOpGpThCpRq0IVqdelUw9SmpRnB8dPjDFZjmOUvDwxuTYetXp4TM8rzihgKOMwOLw+Z4zBY+hjK1KrjcKlD6unHFYLMMRga1D2eLwmKq0Ksa0uu8C/ti+DvGHi3wh4W1z4XfHX4UW/wASJprX4YeLfiv8P7fwz4T+IV/HZXOq2+laReWOv61qmgaxqWj2V5qukaP4/wBI8G6lqlrbSR2VrNfNDZy+A/tKft76doXwi/aJ1D4OeHPi4bn4ceH/AB74b0f9oTTvh5pOtfBnRvix4dsLm3g0RNT1a8v7vV5LLxKkegTau/gfU/AseulNN1HW08wbs1k9dYmGHlWwjvTqOpVVduhRxdLFYfBSyytWjBxhj5YzF4ahCK5sNKnXpZh9aWVy+vHTjeP8HHJMVj6GWcQUcW5VqeEwVXK4QzB4R5ZXzWjxEsJVr8ryWGW0njqjm3mFOqv7DrZZHiRSyRfo14WvbnUfDPhzUbyXzry+0LSL26m2Rx+bc3Wn2888vlxIkUe+V2fZGiRrnaiKoAHrteZjoRpYrEU4LlhTxFeEI3btGFRxirttuySV2231bZ9/k9WpXy/B16suerWweEq1JWjHmqVKEZzlyxSiryk3aKUVeySWgUVxnqBRQAUUAFFABRQAUUAFFABRQAUUAFFAF7Tf+P2H/tp/6KkooNYbP1/RHmNdBoX/AC9f9sP/AGtW0/hfy/NHnUv4kfn/AOks6CisTsOX1v8A4+4/+vdP/Rktfi3+0P8AF/xP8VPjj4q+FfxZ+BX7Xcv7Lnw41Kytf+Eb+FH7PPxN8UWf7SPiO1YXF5ceL/GOk6dBar8INGuY4orDwtoVxOPHt0Xvtd1CPRbW30u/9nJaMa2YUZTlhYrB4epmNGGNxFDDYXFYzC1cNTwWFrVcTOnQcI4jEQzCrh5yaxmGy/EYOUJU8RUlD858Rsznl2RxoLB57i8PnWaYfJMzqcOZLm2fZngMnxOFx2LzTFQwWS4TF46lHF4XAzyKlmFKFOWWY3OsHmFOrGrhqcZfop4e+M2nXVt8ErLSfg/8adJ0v4rx63YafHefDC78O2fwms/C2i3l/bx/FvTb+4sbv4dWeqxacuj+GIJrC5N7qVxp9gkFtHOki/nZFN8YvhT8APjP+xZpfwE+L3i74geJfEPxp8M/Cbx3pHg+W6+DWueDPjZ4r8UeIdK8V+JviXBdHw74NTwnaeML618R6T4gmsNZ+0aXCdNsNQF8PJ2+orEzxuVYvMcFD6+sQp454qNehDEYTMVgq1WriI80JwqYKtmOZYapGpL67So0aeH9risZh6NThzLOa1KnlXEGVcO8QV45dh/qVHK45PVwuLnR4gyahmGA5cFWdKvh6WFzPB5VkuaQq0KLybFYupXzL6plmW5ljMN+ivw7vrf4aXnwy/Zus/B/xBvbTwl8EtFltfiXD4beT4XRW/ghdC8FQeFr/wAWyX5kt/HGpRbdZ0/QJLGV7nRbW+v2vVa3Mb+ZeNvDHiS7/bl+Afi218Pa5c+FNG+AHx90bV/E1vpN/N4e0rWNZ8V/B+40jStS1qO3bTbHUtVt9M1KfTbG6uYrq+h0++ltYpUtJ2jr6xHEZ5TzSc6dOnmEOL8VKEqkefCyxOR8VYGjRxLtGNOtiMQ6P1aN/wB/TxeDcFz4iFNdeIwdShwmuHsLgsa58P5t4YZZCX1epKljqGWcV+H2bYrHZdK86uKwGBwLxEcbipRh9WrZXmqrJU8FUrOh8UvCXiT4iftl/s42F/4d1+b4X/CHwL8TPjFca9/ZGpN4Quvindy6N8P/AAVo19rJtjora7pGi694p8S6XpjXQ1SJ4E1OGIW9vI7faVcNWUfqGVQjKLqOlmNbFQi1dYmed5nQpTqQVnCpLK8NlkVzJSnQp0KmsZxk/byylWjnPFtatSrRpTzbKqOX1qsZqNbAU+EuHK9VYeUkoVMPSzvF53T5qScY4hYmlOTqUpqP4pfD74U/E+z/AOGa/tvw28e2v9g/8FL/ANo3x7rn2rwd4hg/sbwPrZ+Mh0Txpqvm6cv9neFNXOp6YdK8RXfk6RfnULA2l5L9rt/M91+KngLxZqH7Sv7WmuzfAfVvjP4N8S/se/C3wtaeEdQlvPCvhj4m6hY+N/iNc+IfBGk+ObrTLrSIvEltpF/BfJaW0rahazz6YzPp7Xdtex+3PEYb2WBU8QlCGCzCNd0ailXpxqcF5ThH7OFOpCbxDr06tChTU6c6uLpPDxqQqpuH5tlmVZrChKLyfEVqjzrJKscLi8POhQxEKSzXnhiKmIoTpU8I3Up08TXq050KNOspVouL5Zcd+zXp3xC0r45+DNK+Cdp+2XoP7Py+GvFR+L3gr9rnTPEMXhbwWyaItv8ADzw/8GtX+I9vP44u9YtPEGIdVt9A8ReJPBsXh6G4kuNRN02mmXzzwf4v/aL8B/sy/s//AA68OeA/2lPhtpvgb4i+MfA/7R+s+AvgoniP4uaT4eabxRq/hnWPhPofi/wz4o0jxh4U13Vb7TBq3jPwl4e8XXOj2CutvaQaiTCdayw+IquGOr5Y8RiFkNfMquCrU6OGx08Lm3E2F56k8O4UaVbFYXNckqZn9R+r1sNhK+Px8KWHr4DGQw/Hl9TOssy3FTyfB8aU8vpQ4hy/hmebZdic04gyPATyvhLHYmnTo5vQxeOxjy7E5ZxTDhmfEVDMaebY7A5blntc4w2Z5PHM/LdQ+GPxZ1yP9vvVNO8B/tY+I9K+Jn7F1n4e+HetfHbQtR1j4hfELX9L1PxvHc6Zp+i6DpMFv4cvfP1mOPQfhu2jaB4mWykk1r/hFrePVZJpPoD4zfs8fFD4wa3+1x4O0Dw5rWmT+P8A9iX9nfwl4R1rV9O1LR/DeueNPCviX4ma3qHg5PENzFbacupLu02x1i1W8Fxo8Ws2dzqKW8E8bveIxmHoUMLNfUZ1MLg06uDwNVRpSrYWedc2DjU9o51ZT/dYeeKVWosW6scVRxFeliaNepx4PIM3x88Th3huIKcMxzDHKnmWe4Wp9c9hmWJxVWhmWM9jh4UcNGVLFU8W8HDD4d5ZTksurYLA18JVwVDL+FPw0+EfjHx98FLXSP2L/wBrjSPGfhfxXoHjLxhrXxz+LX7Seg/Db4N6x4SSW9j8RaFqnjf4ieKvBvxd1i2163t7TwvofhWx1Ox1ixv/ALZrV/oempfxJyHi6++LHwk/Yx+Ov7HJ/Zo+OXxC+JAtvjdpHhHxD4M+Hep+Kvhn468KfELxd4s8Z2HjOPxlpbyafb6lY6P4ieK+8F3bR+NNQ8Q2MWmaPo+oS30ZirF1Xi5PLKuaZZ7DEYhZjhMTh6GCwOHoYeliKeFdTEyweHo+zzDF4CtVzCeCrQniqdLK8Jg7PMcVHBUZy3AwyHA4jiPK+DONquIjleN4bzDLs4zDiPiTOsbmVbL4YijDB4fiDNczrxyHBZzhHkFHM8Hi4ZRiKmb4nOIVFw3Snn1T9n/CEE1t4S8L21zDLb3Fv4d0SC4t543imgmi022jlhmikCyRSxOrJJG6q6OpVgCCK9ir5TMJRli8TKMlKMsTiJRlFpxlF1ZNSi1dNNNNNOzWqP3vJITp5bgadSMoThgcFCcJxcZwnHDxjKMoyScZRaalFpNNNNXQUVxHrBRQAUUAFFABRQAUUAFFABRQAUUAFFAF7Tf+P2H/ALaf+ipKKDWGz9f0R5jXQaF/y9f9sP8A2tW0/hfy/NHnUv4kfn/6SzoKKxOwxNWspZyk8KlyibHQfe2hiyso/i5Yggc9CM84wvsl3/z7XH/fmT/4mtoyVlqlbTfsclSEudtRbT1TSv0V9tte4fZLv/n2uP8AvzJ/8TR9ku/+fa4/78yf/E07ruvvRHJP+WX/AIC/8g+yXf8Az7XH/fmT/wCJo+yXf/Ptcf8AfmT/AOJouu6+9ByT/ll/4C/8g+yXf/Ptcf8AfmT/AOJo+yXf/Ptcf9+ZP/iaLruvvQck/wCWX/gL/wAg+yXf/Ptcf9+ZP/iaPsl3/wA+1x/35k/+Jouu6+9ByT/ll/4C/wDIPsl3/wA+1x/35k/+Jo+yXf8Az7XH/fmT/wCJouu6+9ByT/ll/wCAv/IPsl3/AM+1x/35k/8AiaPsl3/z7XH/AH5k/wDiaLruvvQck/5Zf+Av/IPsl3/z7XH/AH5k/wDiaPsl3/z7XH/fmT/4mi67r70HJP8All/4C/8AIsW2nXM0qh4nijyC7yIUwoPIAbBYnoAPqcDJrsKzm07Wd7X/AEOijFxUm01drR6beXzCioNgooAKKACigAooAKKACigAooAKKACigBkmq2eiI2qagboWlrjzjZafqGqXP74i3j8uw0u1vL6f97Km/wAi2k8qPfNLshjkkQpqLey/IpVIQVpSSe9nfb7vI4Kug0L/AJev+2H/ALWrWfwv5fmjhpfxI/P/ANJZ0FFYnYFFABRQAUUAFFABRQAUUAFFABRQAUUAFFABRQAUUAFFABRQAUUAFFABRQAUUAFFAGfqv/HhP/2y/wDR0dFaw2fr+iOWv8a/wr82cfXQaF/y9f8AbD/2tTn8L+X5oml/Ej8//SWdBRWJ2HjPxb+P3ww+CE/g6y+IOo+J4tT+IGo6rpXg3RPB3w2+JfxR8Qa/f6Hpj61q8Nl4e+F/hDxjrYXT9Kjlv7m4nsIbaO2ilkM2IpNrPhN+0N8IPjddeJNM+HXiqe/8QeDZbOPxZ4Q8R+F/F/w+8deGhqKSPp1zrngP4haB4W8ZaZYaiIZ10/UbzQ4bC+ktrqK0uZpbW4SN0l7Z1o02nOhzOdNyjCo4whRqVJ0qc3GpiKdOFenKrUoRqQppz55RdKryRUqRoumql0qvIozUZypxlUnOlSjVqwjKnQnVqU5U6UK86c6s3TjTUnVpKftNFIsKKAPK/Bfxe8NeOviH8YfhppFjrlvrvwT1jwfoviq71G2sIdJ1C68a+DtN8b6VJ4fnttTvLy7t7fStUt7fUH1Gw0mSLUEmitoru2VLuT1ShawoVOlfDYXFwXVU8ZhqWKpRl0U4060VUScoqakoylFKTOrXaUov1i3F/K608jitU+Ivg7RfHfhL4aanrH2bxt460fxTr/hXRf7P1Wb+1NJ8FNoi+Jrv+0rexl0ix/sxvEWjDyNRv7O5vPtmdPhuxb3XkdrQtadOqtYVfbezl/N7DE18JV03XJiMNWp+8lzcnPG8JQlIekpRfxR5OZduenCrHXZ3p1IS02vZ2kmkV5X4m+L3hrwr8V/hb8HtQsdcm8TfFvR/iJrXhu+srawk0KytfhpaeHbzXY9buZ9Tt9Qtri7i8TWC6QlhpmpRzyQ3YvJbBY4WuCPvVaVFfFW+scrfwr6tg8TjqnM9Wr0sLUjCyd6koJ8sXKcR6JvouX/yacYL8ZK/lfroeqUUAeV+C/i94a8dfEP4w/DTSLHXLfXfgnrHg/RfFV3qNtYQ6TqF1418Hab430qTw/PbaneXl3b2+lapb2+oPqNhpMkWoJNFbRXdsqXcnqlC1hQqdK+GwuLguqp4zDUsVSjLopxp1oqok5RU1JRlKKUmdWu0pRfrFuL+V1p5GB4s8R2Pg7wt4l8XanFdz6b4W8P6z4j1CCwSGW+msdD0651O7is4rie1gku5ILWRLdJ7m3heYoss8KFpFy/hx450n4n/AA+8DfEnQLfUbPQviB4Q8OeNNGtNYhtrfVrbS/FGj2etWFvqcFld6hZw6hDa3sUd5Fa397bR3CyJDdXEYWVyn+8eLUdPqf8AZ/tb/a/tL+0/Yezte/J/ZOI9tzcvLz0eT2nNU9nNSSpywsZXbxccfKnbaKy55aq/Pe1nL+1MP7Ll5ubkrc/Jyw9oz4f/ABF8G/FLw8/ivwJrH9u6BHr3inwy9/8A2fqumY1zwX4k1Twj4msvsus2On3p/s3xDoup6f8AaRbG0vPs32vT7i6sZre5l7ajpF9JQhUj5wqQjOD8rxknZ2avZpNNDurzj1p1atGa7VKFSdGrHs+WpCUbq8ZWvFuLTeZqetaNoosDrGraZpI1XU7PRdMOp39rYDUdZ1BmSw0mwN1LELzU750dbOwt/MurlkZYYnKkDz63+L3hq4+NuqfAVLHXB4v0n4XaL8WrnUntrAeG38Oa74q1zwhaWUF4NTbVG1uPUtAvJ7m2k0eOwSxltpYtSmuHltoSn+9q06UGm6lTGUeda04VsDldbN69GpJX5aqwdKE407OV8ThZTUKVZVUVGqVKtWnoqFPBVZQ/5eSpY/NcPk9CrCLtzU3jK7jKbajy4fFKDnVouk9/4h/EXwd8KfCd/wCOfH2sf2D4W0u70SxvtU/s/VdU8i68Ra7pvhrRovsWi2Oo6jL9s1vV9Ost8NpJHb/aPtN08FpFPPF2tC96LktYxqyot9qkKdGrKNt9KdelK6XK+eyblGSiXXM431UVJryk5JO+2rhJW3013VyigYUUAeVfF34weGvgvovhXXfFFjrt/aeLviZ8OPhVpsegW1hdXMHiH4n+LNN8HaBeXyajqelRRaNZ6nqlvPrFxbzXN9b2CTS2WnahcKlrJ6rRT/eUqlaOkaWOrZfJP4nWoYLLcfOSSunSdHNMPGMm1N1IVk4KMYTqKTUasaL+KWEo4xNfD7KtisdhIRb0ftFUy+tKSs4qEqTUnKU4wKKBhRQAUUAFFAGfqv8Ax4T/APbL/wBHR0VrDZ+v6I5a/wAa/wAK/NnH10Ghf8vX/bD/ANrU5/C/l+aJpfxI/P8A9JZ0FFYnYfnp+1/f+OtN/aM/YUvPhv4Y8MeMPF8fjj46DTdA8Y+M9T+H/h+7jf4J62l6974p0jwR8RdQ09rayae4to4fCWpC8uY4rSR7KKZ72DifDnjPxZ4c/a3+Kfjz44+DNO8FfGeH9kfVZfhj4E8Ba0nj7wB4s+Gfw88X3PiPxXqC/Eq70rwh4r1rxmnivXNA0/8A4R3WPhn4FstE0e7E+i3XjCW/1O70XkqYiWFjicVGyxWEw3EGIy6m4upQxVSlwpj54iOKmqlKpQUcD/aVSlCnCsqlfD4aMqlONaagvYfWakcLvh8XiOHKGNqKXJWw0ZcU4B4aeHpuM4YjnxscDSrc9Si6dCviKkIVZUYKp5bqum/Ezwv+xHp/7dqftEfGHU/jpafCnQf2jtWs7j4kazcfA3X7bUtH0/xbqnwkt/gu0rfDSw8GXOi3k/hPRdV0rw5Z+Oba8Nnr3/CUTasJWm9o+Onjbwt8XPiLqXgnwpo/7cXjvxb4D8HaNF4w0P8AZa+J9t8HvCXw21nxfpa+JdEufFPijW/iv8EdD8S+O5dG1GxvYfDk/iDxnp9lpcdjNqPhe0a7ma87syofVMRjMsw9SqpZLiMV7DGVVTnOOEpYTEYGOJzRyVsZTwuMwkcXVlWp13XzPNcLhPYzwzw+DXHg8T7ahhMfWiv+FnBwrVMKnOMIV6eLy3EvDYCMWpUJYihmP1Op7KVH2GW4CtjJ1oYn61mB4to3xL+NvxZ+F3/BMKBvi34w8KeJPjT4l8d+G/if4s0W5tdO1vxJofh/4P8AxJvNQnv7PSbi48MS+KL238MLdWGqNbavpWg+K54vE+j2j3FhYunt+t+AtR8Q/tI+DP2Trb4r/HXw78H/AIefAnVfjfrUmmfGz4l2/wAUPiV4o8W/E3UfC+i6Rr/xnk8SSfFefwl4JtrPV7ptI03xhYeZNrPhuwvZ5tI0yx09Na1ODzavQ0jSxOcZq1ToucaVPDZRkGPzXAUcP7SMK9KLzKlOWNi1CGOwMaGExdFxpyRMHVpYGNVzq8+HynIqsViZU5V3XzfP6eQY14mVJypV6sMHWjVw+s44fMISxVGo01E8a8DfD3416TrP/BTHwB8G/iF4k8R/FGz8cfAO38JeLPEviDSrTxxfeHx8J/A+o33hz/hNb7RbvTrfxifAx1Lwb4a8b65pdzcwar/Y/iLxLe3Wpx6lrc31D+ylq3w7tvGfjjwbp+r/ALUvhb4o2HhrQNS8WfBP9qH4j+PPiFqmi6Uuoahp8PjjwTrXi7xV8QfDviLRtZ1JJtO1LXvhn4917wtDcQWNjd2eiX8kVrLlhpuf1e6j9YrZDktanTlCn9VxGHp8O4SeJpYOlyuOHxWDqPEZjJUvY1quAjSdKVfDZbj4Q2q0/ZUKalOtKhQzHFRVaFWftsLCtmVClltPHVG1UxcK0JU8rdWt7eH1qdSdeNHFY3C1jpviJ4n8SWP7bf7MvhSy8Q65Z+Ftf+DX7SWqa74atdWv7fQNa1PQtS+DUeiajq2jRXCadqN9oyapqaaVd3ltNcaemo362kkIu7gSfDnw+8FfEj4hfsd/GX4/eIP2kv2iYPiT4L1/9q3WPhbe6J8VvFGjeH/Blr8Kfif8Tbbwzo+seEdPvbbw98TNOe58MpHfQfE6y8W7NBmg8NaQ2kaRp9nbxcFatPC5ZTzGLU6uDyziPF0YzSnTqY3C8T46lhZ4unK8MVh6WBpVsJ9WrKdPknQlFRlhaLh2U6EcVjqGDnKcaGMznKMBiPZTnSqfVMVkcq9eFCtTlGphas8TTpVvb0HCqpRqRUuWtVUvc7fxZ4x/ag+LfwN+F+vePPHfw68DXP7IXg79pfxvp3wp8X6z8NvEfxB8YePNa0/QNM0RvHHhW60zxppPhHwilrrN/qWn+FNb0G41HUNd0BNTvbixgWzk6HxN4Mtfh7+13+wd4Pstf8Y+J7XRvh7+19HBrfj7xVq/jbxbeR3Nj8Lr1V1fxTr9xd6xrD2guRZWtxqNzcXS2NvbQyzzPGZX9qpRhhcdQpU7yjWzDi9ylUtUnGOWrjHJ8LTozknOjSWCwOH9tSpyjCtilVxFSLnNcvkYKtUxlKjXrTvKll3D7Spv2cJzzPJcizvE1a9Onywq1/rWZVqdOU4v2OGp0aVNRtOU+K+HvxC8d3f/AATV/aG8eX/jjxbdeNtE0j9umTR/Gd34m1mbxTpEvhL4l/GzT/CcmmeIpr1tWsJPDNlpWlWXh1rW8ibRbXTdPttNNtFZ2yR3ba48YfHn4vfAn4Ha/wDEv4neEfAHh/8AY+8G/Hnxifh74+8T/D7xp8UvGvinV7PwdplvrXxD8K6jpfjmPQPDUGmaxrGsWWh+INKm1nW/EOjza3c3tvBFbtwYSCr4mVGo5OHJk1ZqMpRnzUOHuN80SjJNNQr43K8BPGQ+DGUaHsMRGpSbS9DGTlQoe2puKnHHcT4e0rOLp1uK+CsmppxaalLB4PNsb9Qv/utWfPS5fejLxOw8XeMv2WNK/wCCsfjDQPE+tfELxZ8MJvhdqHg7xF43ms9b1zzpvgP4YTwsfFN+0enQ69/wiMeo2Nveapqu2+1fTNGW88RX9/qc+papd+jfCzRv2k/DHxS+B2reFPAX7a0mkanrM2k/tHax+0p8Y/gb42+HviPwpqvh3VZ38a+G/Cfhr9oT4hy+AvFWjeMY9CutJ0j4V+D/AAx4cn8O3Gq6VfaZMqWbJvhJKpWwFStKnTp1Mn4Rp1Z1KbeDpYfF5X7PNp0MPh6dS2J9m6GKwMpU6awtTB4elQrSoYjMKU+fFU6lPCKjRlWqTjW4grYeEKsViqlTB1sJUyOhiMTialN1sPQ9pPBZpaq6mLhiZ18RTlXhhKlLn9H8H+NP2hf2Z/j5+0r4j+OPxi8P+PNaf9o+PwZ4a8O/ELXNL+FPgDwj8Nte8feBtB8Dan8JY5j4B8UJqOl+GA/jrVvFegar4rn1DU9Qk0bX9DubTTbq0+9/2Qv+TUP2Zv8AsgXwg/8AUA8P1jgWo4TMaNuaVPD8GzqYiSTq161TCcUfWJue7pVcVCvi6NKTksNHFSw9GSw1OhSpXiI82OwNZymvaVuMaUKF2qdChh8dwzTw1ONK7jTrU8P7LD4ma9+vUoe1rSqV5Vas/wA1bTxv8ZvFn7OP7J9vpHxq+I/hXxT4+/4KJfFL4beIvHVn4gudV8TT/D6H4m/tN6XN4bebxENZsdRsrDw5oWn6f4a07XbDVtE0K60jw7dW+lkaFp8cP1j4O0bWfgX+2Z4L+E3h/wCI/wAWPF/w4+LnwB+JXjXVPDXxW+JXi/4qyaB42+GPjL4a6XZeIPDHiDx9qviDxJo8Ou6T471O11vw9Z6rF4dae00+7sdMs5IdlVl9uagpfvFjMxzrC1vaWqWo4Hw/wOdYVUHK7w84ZnD6xOdFwlVU6tOo5U61WM3mLkpYhxlKmsLRwNakqUuROpivEnOMnre1io2qw/syMcHCnNyhCnGk4xjPDYadLJ/b98A6R428Q/sWwaprHjzS47z9rjwf4auB4M+JXxA8AM+nat4D+I+oXFwkngjxJoEkOt29xotn/ZPiSB4/EOiW8upWmj6nY2usarDecNrXwUXxV/wUBPgSH4jfFjwz4E8MfsO/D6DWIPDPxL8ZaZ4/8ZCz+NHj610G21/4wjV5viuLe0K3t/q2oaZ4z03xJ4h1AWI1jXLzTxqNjqCwEV+4pNy5f9Y+Jql07VOajwBTxMF7b+L7OVTEzp1qanyVsLDD4WpGVDC4anS2zBWhiqivzvhzheKTd4R9r4jyw7kqUlKi5QjhqdSk5U5ezryxFaHLUxeJnV828YfEH4neBf2dv2xvANn8U/iPqtz8A/2tPgr8Pvh94+1fxbq0/wASYPAXjTxP+zn4sm8N6143hng8Q+IfsUXj7xF4ak1fWL+81bWPDdwmna1d3yeaZfbP2l9J8a6X8X/E/jP4ty/tST/s2R+CPDMPhDxJ+y18TPF/hg/CLXbJ9Yl8eeIfif8AD74W674c+JnjWC8U6TfaZrVjo/xV0HRtMs7u31Lwvo0f2i+u83WhPA5Zj8RUWG9v9SxmMxcIQjhsNUx3A/D2NqV62GjTnTWAhmePq4hYeNGeDwc631mph3hKNeDinSqr+0cLhozxEqOY5ng8LQlN1MVXw+E4jxWGp4Wjiq04tYr6jQVJV6tT6xiIQlRhiKeMr08VT+/PA+qaFrPw/wDCOseFfE0vjPw1qXhHQ9Q8PeMZtRTVbjxTo11o9tPpfiKfVIo4U1C41mzeHUZr5IoRczXDzCKLfsX8bvhx4f8Ainqn/BOax/a3vP2nfjtcfHPwT8I/GXxO8Oa3c/FHX7jwB5Xw4m8S3uneDPF3w3lun8FePbTWLDQ10jxZrnjnSfEPja81O8vLi08TaeLbTLWwvGVKuAqZ7jqtCCr5U8BWjgJL/Y4V4VM9rYihUpJy5qNWngngatLnlH2NT28HHG4XA4rDXl1GlmFPLcDTxFX2GY+wo/XudxxksNWp0qUKsKs6fPSr+0r0Mb9YUY1FUw6oVYVMLicXh6v018XPil4V+MHiDwH4L03Qv2xvG3j6x+Ffh34h+MPh3+yp8Q3+Eul+DbP4lafDeeGtS+Ivj+++JnwV05taZtN1ZPCvhZviDeTXVpBqOoaj4TvLYWt3H4t4C+MHxk+In7Pn7IXwt1L4i/ELwl4h+Nv7R3xs+CPjf4n3F54dg+Llj8PPgjq3xyuYtGn8UaLLrvh+x+KPiXRfhjoXhbVvGXh251NmvZNd1rQNUl1CW01euirhIUJ4nAurOVB57ToyVWU6eZ4jDYfPquX4uOFrUk3gqOKw86mCp041cPXThluNwdJVZ1sdiPPhjKlTC0cyUWsSsolNqMY/2dh8RW4Xr5xhnUw9V2xVeniMLh8W5zhiqPJWx2CxFXl9nhaHf/tmeAtH/Z9+Angm/wBE1f42fEmztv2wv2VfF40Txj8Q/Hvxs8ZSSaT8WvBzN4d8FXPjvW9e8Ryyaq1gTp+hLqssVxrN8y2/kJMkUfdfAP41Wup/CD4wftlfHb4meI/DUATxTonir4X2934ji8P/ALMujfD7VdR0+b4eP4G+wRXGs/Ga3u3S68Y+Lrzw7ea14k1i+0zSPB6HwVDoMWockKjq4HPK1Tnh9Vx+ZypUsJThCrJ1eHeC8HWx9GjTg6dSpl1FRoShWpSjPMM7wGNgni8LCpHrlTdLH5Vh6fNNYrDZdGdXE1Kk6bcM54rx1LL6laco1af12rF1oOlVUY5dlWPwVVRw+JjGXh3w/wDFfjTwb+0b+yj/AMI5of7cnhLwj8ZfEXxB8H+Npv2rfid4e8Z+F/iJp1t8IfHPxD0XVdJ+H8/xj8ceJ/hj410/WvCWn3kMGmfDr4Y6VFolzqukarpkFxJZaafHfiPJ8SPidY/HPwpH43/bim/bB079orVvCnhbRfg54p+P/g/4C+HPBP8AwnOlXvgXSrrxV8M5NP8AgF4b8JT/AAW1TRNb8a6p4w1+z+KdnquoajLPNFqDaZbS9cafNjsHhnPDqrRwuJSpxm1h6KpZ5kkKn9p4iblRxEsNhsfVw0sW6uJ9pltRToYuvnMcPOpyVKrhhatWk8VOliZYPFOrOKliq0K+XcQwUsuw0XTqUYVcRluCxMMFTo4apHGRre1w9LLJYinH334k63491/8AaN8Sfs92Hh/9sPx78LPgD8F/hI1lZfAD41+E/AvjfXfFnjtPFsQ8afFX4n+O/jr8IviX4vaz0vwtZ2WhQWfiDWtJ1fXovFWqeOLe+vDpqyfRnwL+H/x0+Ifwd+G9n8ffE/xt+GHjb4V/GjUvEelTWfjLwHpvjX4n/Dvwnr2sR/D3RvjhL8Pbzxl4O8QWPiTwlf6bb/EPQtH1WNNa1rSf7RN7BLIJHnDzU4zr1nShP63LMnTnRtLEYvB8Qc9DCUqdGDwtDJ8TlTnhcZgoVacKtLB0JKlRxWJxzqb1qc41nRpOs4LD08s5o1ouOFwmN4cjLEYupKrOOKq5vQzWdPFYDHTpVZQji5tzlh6OEhS+46KxOsKKAM/Vf+PCf/tl/wCjo6K1hs/X9Ectf41/hX5s4+ug0L/l6/7Yf+1qc/hfy/NE0v4kfn/6SzoKKxOw+fvjX+z7YfGfXvhf4si+JXxK+Fni74Rav4l1nwf4m+GrfD179J/Fnh2fwtrUGo2XxJ+HvxG0G9tZtHubiGJRo8M8EsxnjnEiRFM74Zfsy+GvAHjrW/in4l8efEz41/E/WvDb+C18c/F7VfC9/faF4KmvotUvPCfhbw74G8IeAvAnhzR9T1O3tb/WP7L8JW+oaxcWlp/ad/dRWsEUapxhB1ZTpwryqLExg615xoU8Zgv7OxVOlSTjRnGvg54ijN4mliJRji8R7OUG6XsoqQdRwtUqUoxlhpVIUnGP1iWDxX17Cyq1HGVaPscXChXiqFWjGUsNRVSM4OtGr5tH+wh8NEjsPCsvxD+NVz8DdK8SWvijS/2aJ/GGiH4KWV3YalHrWm6MtvF4Si+I914I0zXIYdV0/wCHWofEe88A2ssFvYReGhotvBpkfXeLP2SfDPiH4j+NPiNoXxT+Nnw0b4ow+H4viz4P+G/i3QtD8KfEl/DemxaFYX2ry6j4S1rxf4W1iXw7b2nh+/134Y+LfAWtXul2dok1+bq3jug7KcKcK6+spqtDHPESnOpm9PE0MFQxFPMqqnGrUhX/ALOwGIrLDTwrqYvDfWpN1sRi5YhKnyTrTozlQlNUvqvslBRy2VHEVcRTqYCnOE6cJwniK9OPt4YiMcLVWCjFYSjh6FG34V/ZH+GHgzTP2bdH0G/8XW2mfss6z4q1n4bWb6jo8kd03izwp4t8HXlh4nb+wVkv9P0/SPGOonS00t9Fuorq106W8u76KK6gu9/4vfs6+Hfiv4p8H/EKx8bfEb4TfFDwLY6vougfEr4Vat4f07xI3hfxBJaXGt+ENc03xj4Y8beC/E/hm/vtO07U107xJ4T1U6bqljBqOjT6ddtcSzupKpVrxxM6s/rKxVbFuuuRTnUxNCWFxkZLk5PZ4vCVcRhqyjGM1SxNZ0Z0qqpVKapUKVKjHDxgnQjgMNl8aUnJxVHB4iri8JUumpOth8VOGIpTcnFVcPh5OEuWaqcT4N/Y68HfD/R/jHaeE/ih8ctL8TfHHW/Cvinxr8Sf+E6sbv4hJ4r8KW1jaweING1i98OXGn2cmqxWEMOr6Dc6RfeEG05pNA03w5pnhtl0dOz+Fv7OukfDnxtrXxO174jfFD4yfEvWfDdr4LXxx8VdT8JS6hongy1vxq//AAi/h3Q/h74M+HvgvR9OvNXWPVNVurbwv/bWr3sFq2p6rdxWdpFBcJ8lVVYwgvZYenhcFB8zhl9Cnlqyfkwt5czUsrvgpLFSxKjGdSvTUMXUniJT7BOgqEqtWUZ4qpjMXNuHtMwxFTHQzRzxTjCMYqOZ044+MMJHCwVVeycXhLYZdlrvwi8N+Ifi98PfjTe32uReKfhr4U8f+D9CsLW5sE0C70z4jXHhS51ufVrWXTJ9RnvrV/B+mDSpbPVbC3gSe/F3a3xlt2teU8Jfs4+B/BnwO8W/AHS9V8Vz+DvGX/C3f7T1K/vtIl8TQf8AC6PEni3xR4p+wXlvodrpcX2DUPGWpw6B9o0a6+y2cFhHqP8Aas8VxcXXLWoQr4KWAm5KjLDZhhHKLSq+zzLHYnMK8lJpx54VsVUjSfI4xpRhGcak1KcuulUlRxNHFRSdShjsJj4RldwdbBYN4KlGSTUnSlSk5VIqSk6lnGcI+4cv4k/ZL8Faxpnwg/4Rzxv8T/hp42+B/gu1+HngX4qfD/XPD1l45PguLTtF06/8OeJrbxB4U8SeAvF2j6y3h7R9S1DTPEPgfUNPt9YsotU0a10m6UPXS6V+zvodp4t+DHjvXPHvxK8b+MfglovxN0XRPEHi7VfDV1feKI/is+jN4ivfGK6T4T0a1nurFdCsYPD8Phu28M6XpdqHtTptzbpbRW/bLETnXqYiUYOc8ZmOMpR97kwrzWlj447D4eKkrYetiMyxeOtWdarDF1HKFaNGdWhU4KGDp4elhaNKdRQwuDwuDk24uWKWCp0aGFxGKfIubEUsLQo4VSpexpyw9KlCdKTo0ZU/Gtf/AGB/hzr2k/EbwQvxU+POh/Bv4oap4w17xL8C/D3jTw5pvw3i1zx1Neah4kvdHuP+EKn+Iml6dqHiDUL3xLc+DYfHzeAL3WLq6TUvCd7pN3daXN6N40/ZT8IeKD8K9W8P+O/ih8LfH/wd8JjwH4R+KHw41nw1Z+MbjwVLZ6Xa6h4V8UWXinwj4s8CeK9D1OfRdK1aax17wXex2Gs2UepaF/ZFw8xl5qSdGnThTlJVKby//aG1LETjl+Bx2WRpzlJOHs8VluY4rBYuMIQ541amKpOjmFfE4yv0VKcK1adWonKM/wC0W6F2qCqZljMFmVaqop8/taWY4DD43DSlUl7GrGNK0sJQwuHw8fw1/ZC+FPw50/42aZcXXjL4kW37RD2k3xe/4Wnr8Xi2XxddR+Gn8K6lPcyDTtOa2j1zSpDHe6ZaeTounKsFn4Z0zQNKtbXToX/Df9mKb4aaz4Ynsf2h/wBpDxL4N8Fi4i8L/C/xd4z8H6n4O0+yezm0+x0zUdXs/h9pnxN8X6botrMqaTa+OfiH4mWB7a0muDdTW0Ui6xkoV/axhBU1hcBg1hLz+qqjlNKdDKtOf20nl9GrWpU1KtKniYVprHwxlqfJk8OnQVJ1arqqtj67xbcPrUqua1qeIzSbapqjCWPr0qVWpKlRpyw06cXl7waunxXiL9hj4f67J8R9I0/4ofHTwb8Lfi7quv678Rvgh4N8aaHpPw08Q6z4tW5fxbe20tx4Qv8A4heFIPFd7d3GpeJNE8FePvDfhvWr+e6e/wBGnhv9Qgu/qT4ceBtJ+GHw+8DfDbQLjUbzQvh/4Q8OeC9Gu9YmtrjVrnS/C+j2ei2Fxqc9laafZzahNa2UUl5La2FlbSXDSPDa28ZWJJov2GGlho+/GdPLKTq1LyrexyihjMLgKXMmo8lHDYyVF3i5VPZU61SUsTUxVfEXOlGeKWKcpxcZ5jVVGLSoKtm1bB4jH1lBpyjOviMFTrcsZqlTdSpTpU4UVRpUfCNF/ZB+GuheE/hT4OtNc8cyaZ8H/jz4k/aH8NT3OpaA9/feNfFGvfEXxFqGl67LF4Zht7nwvDe/E3XorOy0+10zVo7W00hJ9buJYLye/wDVdW+EHhrWfjL4K+ON1fa5H4s8CeA/HPw80jT4LmwXw7c6L4/1fwfrWs3WpWkmmS6lNqltdeCdKj0ye11eztIbe41BLqyvZJbaW0VH9w6Lhq6GJx2Lhza3qY/h+nw5WjK1rwjgaUatJK0o4tuc5TotUFVeCr+25217anh6c+WytHDcRYniam43UrN4/F1KM73TwkYU4qNZSxEqPxt+CXhr46eGtD0LXda8VeFNT8JeMtA+IXgnxr4G1DTtN8XeDPGnhprkaXr2iT61pHiDQp5fsl9qOmXun67oOs6PqOl6lfWV9p08U3y0PCHwI0bwt8TU+L974z8deMvHr/CHw/8ABrU9Y8VT+Ekj1vQ/D3inXPF8HiDULDwt4R8MWMPii91TxBex30ukwaX4fFlHawWHh2weN5pSh+4k5Rbl/teKxsIzd4062NyWeRYrk5eV8lbBewm4zc+TEYWjUpOEJ4qniXWj7eLjJuKlhcJg58trzo4HO6OfYRPmUlGVHHU60U4KHPQxuJhVU5xwlTC8R4n/AGQvhr4s0X45aFqOueOIbT4//FTwH8XfGUllqWgR3OmeJPh4nw3j0Wx8MvP4ZuYrPQ7pfhfoB1S21WHWb+c3msfZNTshcWQ0/Y+J/wCzvqXxL13WtTg/aJ/aI+Heh+JdJttG8Q+Bvh74l8A2fha/tIYPslxJYT+KPht4s8XeEb3UrX9zqN94F8VeF7qVt13FJBfyy3cmTo0pYXC4GrH22Ew9OhRnQnKcY4zD0MjwOQKhipUpU6jp1MJl+HrTeHnh6ixfPVp1KdNwowuEp0qmIrUZypV6+KxONhXioSnhsTicxq5nKpQjUjOk+SvWnTpwxFOvD2D5Kkak/wB4ey+D/Bfhr4d+CfDfw/8ABekxaJ4S8F+GtL8K+GNFt3nmi0zQ9C06HTNKsI5rqWe6uPs9nbQxGe5nnup2Uy3E0szvI35Z/slfsK2Wv/slfCLwb8U/Fv7RHhDwprGkjWPih+zTqWuw+HfBGva23iTUtS1Cw8TaTr/hCT4peHdH16cQah4g8FeG/HHhbwprU009zfaBKdU1Jr7rjWnVxeZY3EONWdevlFarRqxi8NjnGvnWKr061G0VOlHEfVJ14UXTvSqfU67lgcbicLieeNCNLB0MFQnVoU6FNww9alUlHE4WdLDrCUa9GtdtV4YaviKdOdRVOSc/rNOMcZh8NiKH2p45/ZT8O+KviRqfxR8LfFD4yfBvxH4m8LaB4L8eW/wk8R+GdE0nx94c8KzX7+HLXXLbxF4N8VXOj6jolvqup6dpniXwJe+D/FNnp17JbQa2nlWr2+Za/sV/Bqw+COi/AjTJ/HGleG/CPj/xD8T/AIf+KNM8Vz2XxD+HXjfXvGfiXxvDrnhHxdDarcw3OhX/AIr1fStMbWLfWTf+Hpn0rxSfEaXepS3+C540uWNSoq6xMcXDGtqeKhXo5hPNMHOMqinRf1PGVJzpKdGSr0vZYfH/AFzD4XCUsPbpU5NxcEsNKCpzwUL08LOm8qqZLXpuFNwqKOJwFT2c1CpF0KinWwTwlXE4yWJ0bv8AZZsPEPhXS/C/xD+NHxt+KD6P8XPhp8Y9O8Q+M9T+HMOs2uufCrxDo/ibw3oFva+D/hn4T8MWvha61LRYDrltaeHLfW9SS5vHGvW93JFdQT+L/wBkb4S+Ndd+NWqauPEsGj/tDeB7Lwb8W/BGlatbad4Q8U3+lJ9l0f4ifZodN/trSfiTpelLBo0PiTRtcsIbzTrHS/7W03Ub3SNLvLMnGMqdelTXsI4iePnVdCU4zf8AaGUZblNaKqSlOfJCWUZfmtGDk1HNsNSxMuejSo4am4QcZ06k5yrVKKwapzrKnJw+pZrjc0p8qjCEE6kcwxmWVmopzyqvVw0XGrUqYifN6B+x1oGleNvhh8S/Ffxi+PHxg8b/AAY1PVdS+HeofE3xf4TmtNMttX8DeJPAmoaDc6T4Q8A+EtDvLXU9P8Rm+1LxFeaTceOr/VNI0SS/8V3mm2lxpd7+fnh7VfjX4a8IfEG+0q9/b2+GP7SvjnxX4y8Yax8D/hd+zj4M8S/s+2/xe16WSOK60H4qfFH4KePfBsvw91S9tdKvdb1ib9ofT7S7hm1PU7K08MNcLpGnuVWvKvXlhqNBYp4CtQwdGrejl+JljsfhsZj/AK9iJVKXsI08dgsuxNOnHFUH9Wq43D4GFPCYKhg6URo0adPDfWKuJeFoV8HGrVpL6xjcNSwdDM6OGlhMNGlW9s/qmZY/DVJPC11Kt9VxGKjVxuIr42X6Jar+zjf/ABGPw7+KviLxz42+Cf7R9j8OPD/hTx946+BGreHLOHW1+ypqeteE9U0Px94V+IPgvxR4X0rxVd6tfeF5td8Mahq+hm6uJNH1WzF9ei57U/AMyeF/ht4buvjV8fbu4+HXxE074j3Hio/EKGy8UfES70+51K6k8JfEi60nQtP0vWvh7qUmpeXqPgzSdI0HSWtrDTbS0js7a18qTeaw+Hr1IYROrg6GaPF4BYhzk4YWOa/2o8HKDcFUwuNxPtJ4yNeM8S6WKxOEo16GFqKhHGjDEVsPCpi5OjjMRlyoY/2DhHmxlTKY5X9ajOKnyYjA0FCODdGccMq2Gw2Kq0K+IpKq/f6KwOwKKAM/Vf8Ajwn/AO2X/o6OitYbP1/RHLX+Nf4V+bOProNC/wCXr/th/wC1qc/hfy/NE0v4kfn/AOks6CisTsOI134j+DPDXjTwJ8Pdb1n7F4w+Jg8TnwRpH9narc/22PBulRa34k/4mFpYz6Xpv9m6ZPFc/wDE3vbD7Zu8mw+1XCtEG+J/iT4K8HeJ/h74N8Sa1/Z3iT4q63rHhzwFpv8AZ2rXn9vazoHhnVvGOrWf2ywsLqw0v7J4c0PVdR+0azdadaz/AGX7HbTzX89tazC1UGtqkuSHnL20qFvL97GULuy05r8rUnPPFKtK+mHhUqVnZ+5ClQ+s1JbXly0fftHmb+GKc/dOY8AfHz4R/FHx18U/hp4F8YQa545+Cur6dofxN8PHSdf0u68NajqyXr6cnnazpWn2Ws2t1/Zt8i6l4fudV01J7WW3ku0nURmPxR+0D8IPBvxf+HPwF8SeMYdP+LXxY0/XdV8A+D10fxDfz61p3huw1DU9Xu59V07SLvQdDihstJ1SW1PiHVNKOpvp95b6WL24t5IldOLqywMaa5nmWGhi8FbRV8PUy2rm0anM7Rp/7BRq1nGq4TjODw8oxxNqLU6kKcMfUm+WOV1KtHH3Tvh6lDFU8FUi4W552xFWlGEqUZxqQqQr03OhJVX1XxM+JXgv4PeA/E3xM+ImsPoHgrwfp/8AaniHWI9K1nXJLGxNxDaiWPSfD2n6trd+7XFxDElvpunXly7SDbCQGI4L4fftHfDj4m+IYfDHhjS/jLa6nPaXN9HP42/Zt/aL+GOg+RaIskofxX8SvhX4S8LRXDqw+zWUuspeXrZSzgndWUFNe1nUpwcVKlSVaXtJxpRcHGtJKE6rhCrUaoVLUaUp1m/Zx5OatRVQqzVKNOU1NqrU9lFU6c60lLnowbnCjGc6VNSr0+atUjCjGLnKU1GlVlD3eikWZk+t6Na6tp2gXOr6Zba7rFpqV/pOiz39rDq2qWOjPYR6xe6dp0kq3l7aaVJqulpqVzbQyw2L6lYLdPE15biTz7wL8XfDfxB8a/GDwJo1jrlrq/wU8V6F4P8AFVzqltYQ6bqGp+IPBfh/x1ZT+H5rTU726urGLSPEdjbXUuo2elXCajFdwxWs1skN5OQ/eTnCO8MJXxnM/glSw+NwWAqRi1e9RYjHU1ayilSrqU4zhGE1J8kYSd7TrQorvzTo166bvb3eTDzV1d80oWTTbj6pRQM57xZ4s8M+BPDWueMvGevaT4X8KeGtNudX1/xDrl9b6bpGkaZZxmW5vb+9unjgt4IkHLO4LMVjQNI6qfGPhv8AtU/BX4seJ7fwd4O1jxmPEN9ol74l0u08XfB/4x/De11vQNPktYrzWNA1f4jeAfCmj+INOge9tN11ot/fxMlzDIjNHIrlRlGc6tNSjGVGj7eq6ko0oRpuGJqr95UcKcpyp4PFVI0ozdWUKFSUYNRbJqSVKNKc+a1ar7KmoxlUlKaqYelJ8lNSnGnCpi8LCpWlFUqcsRSjOcXON+f0z9tj9mPWfFWleE9N+Jq3U+veJl8GaB4qXwf4+j+Fmv8Ai+SZ7aHwvoPxnm8Kx/CLW/EF1eRvYWWj6X43u7+91JTptpBNfYtz9UVajJ0addJ+zqvli37s4z9jQxDpVqUrVaFZUMVhq7o14U6qo4ihVcOSrCUl7SHtqtC/72ik5xs7crqVqKnCdvZ1Ye2w+IoOdKU4Rr0K9GUlVpVIR4fVPiR4L0bx/wCE/hfqWs/ZvHXjnQvFXiXwtof9narN/amieCpdCg8T3v8AadvYy6PZf2ZL4l0Rfs2o6haXd79t3afBdrbXZgNZ+JHgvw/468E/DXV9Z+yeNviNp/i3VPBui/2dq1x/bNh4Fg0i58VT/wBo2tjNpOn/ANlwa7pT+Vqt/YzX32rbp0d48FysMw/eKg4arFfXPYdOf6hLHRxe9uX2Usuxi9/l9p7G9PnVSlz02lKcXvTdNTXZ1qdKrT12fNCvSlpe3NaVnGSXcUUDCvK/jT8XvDXwK+Hmp/EvxdY65qOhaVrHg/Rbi08OW1hd6s91428Y6D4I0qSGDU9T0iza3t9V8RWVxqDvfxyRafFdS20V3cpDaTkfeqUKa+LEYnC4SDeyqYvE0sLTlLqoRqVoubSlJQUnGMpJRZ0b7RlJ+kU5P52WnmeqV87eLf2ovhT4W8CeI/iHBd654p0Lwj8X9J+BniKHw9o0sOpad8Q9T+IOg/DS5082/ieXw3Bd2Oi+I/EVk+qapYXV1Zy6dFdXWjSavKkVvOQ/eV6OGjrVrTw0UtlGGJzLL8qjVm3/AMu6eLzTBxqKPNV9nUlOnSqKnO01JKlSdeelNSnTTWrlVhgsdmHsopbSnhcuxc4yly0+amoSnGVSmpdt4Z+LvhvxV8VPij8IdPsdch8S/CXS/h/q3iO+vbawj0O9tviPZa5f6GmiXMGpXF/cz2sOgXi6qt/pmmxwSy2y2cl8ryvDg/Fb9oz4U/BbX/CXhXx1qHjFvE/jqx8Q6n4V8O+BvhR8Wfixrmq6d4UbSE8Q3/8AZXwq8EeNL6ys9KfXdIW4udRgtISb2MRPJtl2LmTnRpq7niJVYUopN3dGlXr1XJpcsIwoYavVlObjCMINuSdkNSTVZ7Khy87bS+NUuRQV+acpSr06cIRTnOpJRjGTavAn7S3wei+G+vfFrXNb8TeBfAnhvVI9F1PU/il8Mvij8JdTfVbgaeLGy0jwr8TfBnhPxb4im1W41Sx07RR4f0PVF1vWJm0XSGvdWguLKJnw5/aY+EHxUv8AxHpXhPVPGFvq3hPQofE+u6R43+E3xb+F2rWvh64Miwaxb6Z8TfA3hC/1SwmaKRYrjSre9R2XapJIBKkoUvrLnUp2wdCeIryhUp1YKFLBSzKtCnOnKcK+Jw+Ai8XicHQlVxeHoOE69Cmpw5lGalLDxUainia0KFKEqVWFTnq4qOCozqwnCM8PQr4uUcPQxWIjSw1ereFKrNqVvPfBv7d/7L3jq98C2ekeO/Emkw/E+awtvhxrfj34P/Gn4XeEfHd3q0ayaRZeEfGvxM+HnhLwh4gvtZR0/sax0vXLq71ZpI006G5eRFbqviH+118Avhf4l1rwf4o8W67d+I/DFnb6h4u07wN8M/in8Uz4Jsru1ivrW58d3fww8FeMLHwPHPp88GpRHxZc6MX02aLUQDZSpO2leDw8oxrOEG54qnNupTcMPLBRhLGfXKkZOngY4SNWi8TPGSoQo/WMN7SUXicP7TOlXpV4ylScpqNPDVYr2dSM61PGy5MJPC05QU8YsVPmjh/qsa3tpU6qp8zo1eTd8WftNfAnwZ4O8F+PdX+I2kXvhv4kpDJ8OJPCVrrHj7WfiGs1ql8P+ED8K+BdN8R+KvGLw2Ui3d5H4c0XUpLG2JnvVt4lZh0vwo+NHw0+N2iajr/w08S/27aaJrFz4d8QWF7o+v8AhbxL4Z1+0ihnuND8VeD/ABdpWheLfC2rpbXNtdjTfEGiabeSWdzb3ccL208Urv2VT2mLpOLjVwM6kMTTnaE4SpVMPSrOMZNOtChVxeFo4ipRVSFCriKFKtKFSrCMhYii44SampQx1OFXCzipSjUhVhXqUm5JNUnWp4XFTowrOnOtDDYiVKM40Krj6jRWZsFFABRQBn6r/wAeE/8A2y/9HR0VrDZ+v6I5a/xr/CvzZx9dBoX/AC9f9sP/AGtTn8L+X5oml/Ej8/8A0lnQUVidh8RfHVWH7Zf7CUhU7M/tNxb8HZ5j/CrTnSPd03skUjqmdzLG7AEIxEP7TAL/ALT3/BPeNAXkX4zfGO5aNfmdbaH9mr4pRS3DKMsIIpbm2iklI8tJLiBGYNLGGIaQwiejjiHfyvmtaav2vCUZq+8ZKWzTOZ/ws3XWWDx8YrrKUsm5IxXdyn7sUtXL3VrofH3gL/i0f7UXiX9oaJ2t/DvjL9sv4vfsr/FqUuy20ek/EHS/AOu/BzXrwF0t4l0H4rWY8LxXU5xDF8TL1FG6XNUtPT/hY37Yn7NH7Tt2vmw/Ff8Aai+MPgX4ZTyLGTH8E/gv+zf8bPCPhq6s5VLsbHxj41k+IPj+1lV/LvNL8SaNKAyxRNSy3XLuHk2/YZdkGVYKlNOSq/2njMNwrnUW3G6jRqZXxLm+EjGUoqrHD1OZe7FS58U2q3E8VedXMMy4kxuIj73slgaFbi/K6bStZ1KOO4Yyqs+aTSnilKMLqLh9rf8ABR4yr+xD+0Q0EaSzr4MtTDFJIYY5JR4l0IxxyTLFM0SO+FeRYZTGpLCKQjabfjH4y/tN/Dn4SfGD4k+P/gn8HfDum/Dj4N+PfHeiz+Cvjz4x+J+qal4k8LeHLnV9H0m98Nav+z58KreLR7xraZ9R1KDxTJd2qQpDBptyLl7i05sXVlRwmaVeZ0nQy+rWw9WEI1m8TTw+NnTjUpTlSjGmqkKN6inVbjOo3Rfs1Gr6uHoqvmGV0UlP2+KVCvTlKVK2Gq4rL6dSpSqRhV56yhOq40pQpxcoQXto87cPjv4VJ+1NHefs7/EHwn4G/bT1zxd4j8T+Arz49+JfjH8YfgJrPwG8Z/DnxpHbnx9rXh74ZaH+0P4ptPh+PDSX6eJfh3H8Mvh34e1YWWmRaJrcWrC+uoZbX7UXxIsvGtt+0V47+DJ/bt8Qa78HdH8V6bF8SvhF8TtG+Hv7Pfwy+IPww0i5uNYtG8I+Mfi38MdE+Klhoutaax+Isc3gf4qWs6/2ro2nT+YkGm2/dmijgHXp4apGGIyirneIw6rwqVqeFyjLqGW4fC1c+56VRZlWhmeNxFCqoRzKvXU8NUlGqqLq0uHK3LG/VKuJhUqYfOKWTYetHC1o054vNsfUx+JxMMllGvGeWUamWYOhVoe0nl9Ci6WJTlCriHGt0XiPwHpnxm/bE/Y/8S+L/EPxO0/UfGn7G/xN8YayngP4yfFv4bWkes2esfAK4A0m38B+NvD66Np19Jr142u6XprW9j4la30mTxHBq0uiaTJZ6fw0+CDfFr9qP9vltd+KHxf8KeFtP+K3wutNL8N/Cn4j+J/hTcDxJJ+z78O2vPFOreKPAt9ovivW5obGTS7TStA1HW5vCcL217ealoGq3V1BLaazw8KNSWFpSqU6dDA8byouLi6kZQ8SqeFoKVSUZTqUaHsKFeGFqOWEqV6c/rFCtRxWNpYnlwlepiaccTVtKtXnwqqjvOMHGpwTgsZiXGjGUaUKuJlWxFGeIhGOJpUq98NWo1cPg6mH8lf9ob44eIv2e/2S/AKal8WvGXij4q/Hb45/CHx/4r+FWo/D/wANfGjxh4K/Z91r4s2Ah8OeI/GfiT4f+EvDfi7xnZeBNEm8ReILXX9H1yDR7fxVe+GLiLxBJZOO8+2/tGfD74Vftus/hv8AaT+Hfwe039mXxh4z+EOtfHz4r+CPHnxY8E/FTTfCXjZfElh4V8e+C/jF8WfHM3h0Wlv4W8SeH73xZ4rl1XQNet9Xj0m7t7SW0hTz8XVcsJnmJbhhfrGGzKsvdqqOHprI8Nj8BSylUlV+r1KOaKdCVepUo1KmFxuIp11Vjhcuq0/VwFKX9pZPhF7XFLB47LsK4ylRbxUocS4vKcxxGae2lTliqFfKKCrU6VOFanTx2FTpQhKtjVW9esP2U9V+N/7Lz2fjj41/EzVPiZ8Zvhr8N9f1bxVrPiPXfEfgLw14s0m/8LfEfw1c+F/g/qOsx+C9O0fQvEGj6fp9yLW2s/FXivQEuovFnirVtYvp9Yr0P4dfH340eGvit4L+An7T/wAN/CeheLPiDpHiK5+G3xc+EniPUNf+F3xH1TwbYHWPEuh3nhzxHpumeMvhn4ot/D+NdttG1OXxXoN/bwalb6Z4yvLqyEE3r4uMKOY4/LUo0sJDGY+WCqpLmp4mjGuqlPGySTqrHUMHg8LhayfNRxdOlh3TlQxUJYPycDOrLK8vx/NKrXr0MHWx1OpOUlKliaWBpQnhJO6pLAuVfEV6U1y4ijOviZVVi6cli+X/AGn7q2+PusaX+xl8ObaK/vX1/wCHHjX46+KLKFf7E+Cnw18LeLdG8baXZTXsafZrf4nfEO58OW+keAfDdrImr6dpUup+O7tLLS9IsJNS++q4KOmCi3vicfjMbRirq2Elhsuy+lKpC+lWtXy3FYmlU5bV8ur5dWhOdOcFD0pf71UjHVUsNhaNWTbb+tOeJxVSMGm4OlTw2LwcJcr56eNWNoVVGdHlj+c37SOpfEjSv22v2Trr4WeD/B3jjxQfg3+09EdF8c/EDV/hroY019S+CRu73/hJNE+HXxQvjeQOtulvp48MeVdCaR5NRtPIVZuf1jXPjfrH7df7Hw+MHw1+Gfw/jt/h7+1MdAf4e/GLxJ8Vm1R5NE+F41JdVTxB8FfhENEW0VLI2T2r69/aBuLoTLpv2OI3tZeoOnk/tZThKK4u9gqcI1Y1f3vGX8WUqlJ0dXVXuQr6Qpv/AJeyVKMQ6ka2JdGNOpeplaqqpUlRlBPDZXGo6fLSrRq8lG1SKnKi51Oak+SKVaXP/D3wb48/aQ+DfxI/aU1f9oT42+APiPd+LfjU3wzsPBPxJ1nw18NvhJpXwp8e+MvCXhHQNW+FlpJH4B8dlo/CkF58QZPiToHii/1S5vdTsbe70y2gsxb5Vr8Rfil+0n4y/wCCe7p8QvGHwr0L4+/ssfE34ifF7RvAOu6roM+rmPTfghrJtvD93a3MY0DVDqurT2OmeLoLd/E3h/wprHiK38Lapoet6pb65ZZYGKqzoYOs5zp4SnltWtPmlCvjJ4/hbjHE5nGrXg1WhQxWLyKhicHGnNVMrlWm8tq4d0cM6U4mVSnUnXpycKmKrZ5RhGUYypYSOXZ5w7hMrUcNOMqPt8Fh8zr0sapwk8ylC2YSryc5z7XU/hz4l8R/tpR/AdPjZ8d9F+CfhP8AZA8EeJtS8K6N8YPHtn4l8VeJW+L3j7RtL1PVviYdak+I9peJpsTxa7ruh+KdI8WeKV07w/Y6/wCIdR0jTptOuvmv446t43h/ZC/bm+Dt78RvEviRfgh+1N8GPA/w28ffEPUj4s8V6R4b8ReLP2cPiFotv4n17VxLe+LD4Q1nxjqMFvq3iO4vtTv9ItbO31W7uTAZG1wbderl1OTtPGPEZlOrClR9pSx2F8UcqynDVMMvZ+zo0aOX4urRhg4QWEbVJui1QoqFYlQw2LulOVHCZhkOBVCWIqqnWwdfw/eZ4qFeb5qlSriMbQpV6mKqSniI1FVqRqKWIxPtvrTxv4V8R/sx/Fv9mDX/AAt8Y/jT43svjF8YY/gv8VfCnxS+I+ufEHRPFkXiTwH478TWfjjQtC12afSfhzr3h7X/AAvZ3cln8MtP8I+E5dEuLzS5fDqWy2rW/wA6ePfE/iXxT+yj8eZ/E3iHXPEU2jf8FL7Lw1o82u6tf6vLpXhzQv2y/h3ZaJ4f02TULi4ex0TRrNVtNK0q1MVhp9sqwWkEMQCB4FxrYzBvkjGnhMyw2Dow96cuXD8WeG+Mw9erVqSnOviaFHPsRl8MVUcsTPB0o/WK1fEVsTXrTi6c8PhJRdaVapioYbF16rUYWniMg8QcHiaFOnTUadDC16uRYXMJYOlGOHp4qo5UadOjTw1Kj9j/AAa/5Ph/bX/7Er9lX/1G/iXXB/tI6l8SNK/ba/ZOuvhZ4P8AB3jjxQfg3+09EdF8c/EDV/hroY019S+CRu73/hJNE+HXxQvjeQOtulvp48MeVdCaR5NRtPIVZsqTksdlfKk/ezpSu7Wg8g4gVSS0d5Rg5ShB8qnJKDnTUnONOzpZhdtfvcBy6XTmsVlLgpapxhKfLGc0pShBynGFSUVTl6p8V/hN8Zf2gvhT4bTxJD8Pfgt8Z/hx8V/Cnxa+Hf8AYXiXW/jf8PTr/gC6+26FD4suNV8D/BrWr3SdfS71TS9ZsNM0uyvdHjkttV0zWL66i+xjI8HftBfETV/Enjv9n34//C/Svht8XrL4Ra/8RfD2r+BvFsnjv4WfE7wZpxtfDviHX/Cer6hovhrxL4fvtD8Q6xptnqnhHxZoFvqFpb6np95ZaprVrM9zHxZkqayvO8vjOco4vC5xmuCrShGDliqXDVF5lga9JVavJCOCyGeJwOKpyn7WdOvRxFKi62HlDqwftlmGV5hOFNOhXyzLMZRp1Z1FHCT4gqQyzGYecqVHnqPF526ePw9SnDko1KVShWq/VKkcR8O/CDS/jB+0n/wT+/Zn/Zz8Ofs/+NPCfh3Wvh78A11z47/EHxN8IbXwTpHhjwXf+EvFN34q8C6F4U+I/jH4ma14j1O30EweDbLWPBXg/wCyX97a3+vX2ipay28n6kfHDQ/2i9a0hIfgB4++Ffgu9/s7U4tSi+Ifw+8ReKdQ1G9lNsNNbw94n0vxvpmk+DZbeJb1Jb7XPhz8TbY3M1lctoU8FncWGoe3ntNzxObU+Z3xWd5zia+GpVHRrQoV8NhsJCm8RUoV8Ph8y+s4WXta8cPmWFWEpYWKVWbkqHk5G+XB5e3H3aeUZTQo4ipH21GpOm5VpyWGpYjD162C9jVTp05YnL8S69Ws2qChzV/Bv2SviH8G/h9+xL4H8cXUUvww+Hvwq0fxvoXimXxv4gtfEt94e8ReB/G/iTwr8RJZvE9jpWkReI5dY8c6Vrk2mXOi+HtF/wCEgOoWEOkeF9Ka6tNCtun/AGWPCnizVfE/xv8A2k/GfhvUPAV7+0Vrngu88LfD3V7Y2PiHw38Nvh54ZPhzwVqHjixGPsPj7xZDd6j4i17SZw974bsLzQ/C19K19ol2iZVakK+OzPE07fVpUJSpyhCVGUsRmONw2JwcVCVSo3QWAwuNniaHta0sPXllkqkm50aktqcJ08Nl9Cp/vVPE1KGITkpxUcroVcLj5Rqwp0v3scwrYCnRl7OhDFYaeNcIctOpTj9kUVznYFFABRQBn6r/AMeE/wD2y/8AR0dFaw2fr+iOWv8AGv8ACvzZx9dBoX/L1/2w/wDa1Ofwv5fmiaX8SPz/APSWdBRWJ2Hj3xl+CHg3436PoVh4luvEuga54P1+LxX4D8d+B9duPDPjnwH4oisbzTBrfhnW4Enijkn0zUb/AEzU9L1ax1Xw9rmmXlzp2uaPqVjK1ueO+Hn7M+g+DfHsHxU8XfEX4qfHD4laZol/4a8MeL/i7rHha6k8FaBq7Wj63YeD/DHw/wDB3w+8CaHc682n2Ka54hg8KN4q1a2tIdPvtdm05TaEofuJ1akbTc5ValNVPeWGr4jBf2biq9BKz58RgEsLOFZ1aNNL2+HpUMXKeIlnXpqv7LmcoOEaNObptRdejhsXPH4ahWbTtChjak8RGVH2Vaq5uhiKtbCWw6qeKP2Tfhl4w+F/x3+Eut33i2bw3+0F4y8Q+PvFV7BqWlQa94d8Ua9H4faDUvBN+mhm30mbw5qPhjR9a8Ny6nZa3PZatbCe7mv4dtum2n7NXw5tn/ZtGmNrmj2P7LEly3w00rTLnTIdOuYbn4aaz8K/sviaObSJ57+CHw7rl3dxHS7jRZ21mO3u5557YT2U5R/cUY4eH8ONDIKFn1/1dwVTAYOtK1k69fDzjHGzslVdGgqUaEKag5nRjUlWk3JOvU4iqTSaSvxNiY4rHJKz0w9SLWC5uZ0oTqKq67m5HY/Gn4S+HPjr8LvGPwk8XXut6d4c8b6bFpeq3vhy5sLTW7e3hv7TUFfT7nU9N1ewimM1lErNc6bdoYmkURhyrp6Ff6Vp2raXe6JqtlbanpOpafc6VqWnX8Md1Z6hp15bvaXlleW8qtDcW13bSSQXEMiNHLFI8bqVYis6tKnWpVaNWKnSr03Sqwd7SpyjOEouzTtKNSSdnfazRtByp1qVeEpQq0W3TlF2cZOVOakuvNGVKLi01bW99LfLXgD9kuz+Gd94XtPCnx9/aNtfhp4K1G1vPCvwWuvGvhO88AaPYaeYzpnhca1N4BPxb1LwdpiQxW1j4X1r4n6lo8WnRppTW0mlqLIcx4h/YT+HniA/FDRf+Fn/ABz0P4WfGHW/FXifx58EfD3jLQNN+G2p+JvGsE3/AAk+r20x8HT/ABD0221rVJ5df1bwpY+PofAmr6tLcLrHhXUNKvb7TLqq8XiY1PbznVq4jDYvDYyvNp1scsZLLqtSeJ0VNtYnKsJivY0adHCVa31lYnDV6ONxlGvFGnHDyj7C9KnSxOGxOEoQsqOBlhYY2lThhU05qDw+YYrDN1p1q1OlKi6FWjVwmEqUO+8Zfss+GfE8vwf1bw/8Qvih8MfGvwR8K33gbwf8QPAGoeDB4lu/Bur6Zoem654a8SWPjTwP4z8G63pmsHw1oOp3HneFIrqy1fS7a/0W50uRWDekeAvhB4b+HnjL4u+OdG1DXrzWPjT4p0Hxf4qh1a50+ewstT8O+CvD/gSzi0GKz0uwuLWym0jw3Y3V3HqF1qk76nNdzQ3EFrJDZwdE6851sRWcYc2I/tJWSajRp5rmeEzjFUaKvfk/tLDVMTTdV1asZY3F05VJ0lhaeFwo4SnQpYWlTlNRw1LCU224uWIngsE8uw9fEPl96tDA+yw37v2VP2eHo2pqXtJVPIl/Y1+E6/CHSvg+NS8dxWfhn4keL/i34J8eWPiK20j4leBPiD4x8a+K/HN34h8J+JNF0nTbaxm07UPGWuaRY2l1pN9YX3hq4bRPElrr9tcX5vdi2/ZoF54E+LXgLx78dPjv8V7H4weB9V+H2s6n461v4fQ3nhzQNZ0XVtDvZPB2keB/ht4L8GaXq8lrq880mr3/AIV1a9u7i3sv7QkvLa2Fs3JKjCWHxmFlzSo4ylOEoSd/YVauCo5dWxdHp7erg8NhqUo1lWw1OWHp16GHpYhzrT7Kc5UsXh8bTfLXoYtYq60VaMcyr5tTwtW3vLDUsbisTNOjKjiKlKvUw9fEVsO1TXomufCi31P4Vab8KdF8c/ELwJa6LovhjRNI8aeB9b03SPHenQeExpq2FxDqV1ompaLNNeR6ZFBq9reeH7nSdTtbi8s7jTTa3DQjzjwZ+y9pHh7x1YfE/wAZ/Fj4xfGr4heH9B1nw54J8TfFLV/BJT4f6f4iggtteuPCHhb4d+Afh74Gs9c1i3tba21DxLqPhbVPEVxZQ/2c+qf2dcXdpcdFapOviMfipNqvjamLrRmm39RrY3DVsJWqYKM3OKao16jpQxMcVRpV2sTTpxxK9qctHDQoYfA4WDl7HAwwtLlbV8XSwlWjWpU8VKMYys50IqrPCvDVatKVTD1KksPN0jzL4dfsSar8J9H1DQ/AX7YX7VGiWWseIda8W65NLZfspa1rHiHxP4hvGvdZ8QeI/EOvfstap4g8QaxfSlIn1DWdUvrqKyt7LTbeWLT7Cytbf3b4c/D34g6B8VPjb498aePNR8QaF41vPAmkfDXwcmv6ze6D4P8ACXg7wlbWuo6nLoVzb6foOk+M/GXjHUvEeo+I5tA09re60qy8MRyX80lvJa2dKrFtQdCjClSwbpYd03W5qdWk8FhsJQVKdV0I4Ghl0cZThCMOajWjglSgoQ5qL9jON2q9WTqYiVWvGSoRU/bVamMr4j2tOgq8sTUxsaPOvaRhWoYjGe2nK6pVeg134ReG/EPxe+Hvxpvb7XIvFPw18KeP/B+hWFrc2CaBd6Z8Rrjwpc63Pq1rLpk+oz31q/g/TBpUtnqthbwJPfi7tb4y27Wp4m+EPhrxV8V/hb8YdQvtch8TfCTR/iJovhuxsrmwj0K9tfiXaeHbPXZNbtp9MuNQubi0i8M2DaQ9hqemxwSTXZvIr9ZIVt8qf7pYRR1WC/tH2XNrzf2nPNJ4j2lrX5Hm+J9jy8nKoUOf2jjUdXZpOVWb3qui5dk6FLD0Ycva8cNByu3eTm1ZNKPg/iv9iXwJ4jvvG9rpPxP+OPw9+HPxQ1e+174m/Bj4e+M9E0H4beNdV1yV5fFlzKbnwlqfjzwgnjdpJj4ztPhr458EWXiGa5vr2+t21DUdRu7v2aT4E+Bl+I3wn+JGnrqWi33wY8BeMPht4K8N6PJp1p4Tg8MeM18Hx3dvd6c2mTXxl0m38EaPa6H9h1SwtbS3e8jurW+327Wrof7PDDRgk3hoKlGpO8qlXD0cpxuS4HD1pXSlSy3AZhiaeD5VCo6lSVfF1MVVqVZ1IqUo1atWrJySqTq1lTTXs6VfFY3C5hmFekmnKNTMcXgsNVxUZTnSiqcaeEp4WklBaVv8IfDVv8bdU+PSX2uHxfq3wu0X4S3Omvc2B8Np4c0LxVrni+0vYLMaYuqLrcmpa/eQXNzJrElg9jFbRRabDcJLczeQ+M/2NPhJ8QPDPx88H+KbzxjqHh39pD4l+Cvif8RtPTVtMtR/ange2+HVnZaFoVxbaHFdad4c1a0+GeiW+tRTz32tSJqGtNpmuaXLPp8mmxCCp+w5XJfV8PiMPBqcoS5MTxHhOJ5yc6bhONSOPwdKlTnTlBwwkpw1xDhiYaylJ4j6yny1fruX49WUXFV8tyN5Bh1yzUk6csG/a1YS5nPErmUo0b0HZ8IfsneGvD/xB8I/ETxV8UfjR8X9Q+GsGqwfCnRfit4r0HW/D/w1k1nT7nRr7U9Fi0Lwl4Z1bxL4jfQLy60GPxb8S9Y8d+K4dLurqOLWluLu6uZlvP2Q/hte/Dzxp8NJdb8cLoXjr4+P+0Vq93HqWgjVrbxs/wAUNG+LJ0vTp28NPZw+Fh4j0O0shZXNheat/YklxbHXDfPFqUOsKkoVsPiEoutQUHOfLGP1mtHO8sz6eJxEaahB1quLynCUHGjGjQo4CKwWFo4ejRwqw/P9XgqFTDpz9lKtTqU4ubm8NSo5VmWT0cJQnU55/VqWHzXF10qsqtepjZyxdevVq1sS6/qvhn4ReG/CvxU+KPxe0++1ybxL8WtL+H+k+I7G9ubCTQ7K2+HFlrlhob6JbQabb39tPdQ6/eNqrX+p6lHPLFbNZx2KpKk3C/GD9nK1+K/j74efE/Tfiz8VvhH44+Gmh+NvDeha38Mj8MJzeaN4/l8NTeILPV9P+J/wx+JemXG6TwppTWc1nZWFxb4uMyyeavl5pctXD1oyalhpYiUUrcs1isLi8HWhO6vyyoY2sk4OE4y5JRmnF31UVy14tXVd05Sb3hOlKhOnOGyvCeGpTtNThJqSnGUHyiXvwD8V6l4Gj8I6h+1H+0dNrdr4uj8V6f8AEuyvPgt4f8c2UUelPpY8KSWvhj4K6J8Pta8IsZrjUpNN8TeA9cu5NVmS7fUSthpcVjH4A/Zk8M+DfEXirx34i8d/E34ufEvxd4Um8CXnxG+J+seG7vX9I8FT3DXsvhbwpovgzwn4K8BeFdJn1Ipql+uheDbK61fULezn1q51H7DZJbzXpUsRTxdOVOMPrNDE4eE4SqOeDjjMtWVYyWEdSdRKeIwrxHN9YjiI0qmNxcsPGjGrGEHB1ITw0/azmqFXD1qkJRpRp4ueDzD+08IsSqdOm0sPioYdxeGeHlVhhMNDESrck3U9L+D/AML9A+Cnwr+Hvwi8K3msah4b+GvhDQvBehX3iC4srrXLvS/D2nwabZXGrXOnafpVhPqEsECPdS2emWFu8pZorWBCI18l8b/s06x4v8UeKdf039p79qDwBpPjGS2fWfA/gnxn4DXwtb+RY2WnzR+GLnxb8MvFnjPwLHfQ2KTXSeBvF3hwLfXF7qFn9kvb24nk3xVR43G18ZXXM8TLFvEYaMqkMPUWMqwrVFaE1XpyhOCVGtRr08RShKpTjW5K1VTxw9COFweHwdGc4rCxw0aFdqnKtB4SlKjTclKDoVozhJ+1oV6FTDVZqE5UOelSlT5Hxx+w/wDDrxP4X+B/grwj47+KPwe8J/s/6pNr/gfw98Prv4e6zo9/4lYGSx8U+M9O+L/w6+Kdn4u8T6Nfzajrmk67q0EupW3ibV9Q8USXE/iE2mpWnuXwz+GfizwDc6tceI/j18XfjHFqUFrDa2fxMsPgtZ22hyW8kzy3Wkt8Kvg98MLt571ZViuhrF1q1uI4ITaW9rKZpJqVZ3rudOnUeIxWMxk7qVKMcRjIU6cpwp4eVGlH2NGhhqNBODUaOFw9OoqkYNSPYWVBQq1Yeww2FwileFWdShha1avGNWpXhWqOVaricTOvOMoSnLEVZxcJyUl67RWJuFFABRQBn6r/AMeE/wD2y/8AR0dFaw2fr+iOWv8AGv8ACvzZx9dBoX/L1/2w/wDa1Ofwv5fmiaX8SPz/APSWdBRWJ2Hj/wAUPj58I/gvrXw08P8AxO8YQeFNV+MHjC28A/DuG50nX7631/xbePbRWukyahpOlahp2iG4mvbSCG+8Q3elaa89xFAt4ZnCV03xM+Jfgf4O+AvFHxO+JOvQ+GPA3gzTH1jxHrs1nqOoLYWKSRQBo9P0ez1DVtQuZriaG2tLDTLC8v726mhtrS2nnljjbOdWFPD1sXN2w+HrVsPVqWk+Wth8NhMZVpqEU6k3HD47C1E4RkpusqcHKpCpCLhF1MRTwsFevVp0KtOGylTxOIxOFoy53amuevhMRBxclKHs1OajCdOUua0f49fCfX7P4LX+k+K/tdp+0Ppjax8Hpf7C8Swf8Jfpy+EJPHrXPl3Ojwy+H8eE4pNV8nxQmiTnb9hER1IrZn1+umtRqYetWoVo8lXD16mHrQvGXJWotKpDmi5Rlytr3oSlB/ZkzGlWp16dKrSlzQrUKWJpytKPNRrc/sp2kk1zckvdklONveirq/Fap8RfB2i+O/CXw01PWPs3jbx1o/inX/Cui/2fqs39qaT4KbRF8TXf9pW9jLpFj/ZjeItGHkajf2dzefbM6fDdi3uvI7WslrTp1VrCr7b2cv5vYYmvhKum65MRhq1P3kubk543hKEpavSUov4o8nMu3PThVjrs706kJabXs7STSKKACuH8V/EjwX4I134f+GvFGs/2ZrXxS8T3Xg7wJZf2dq17/bviSy8N634uudO+06dY3dppnleHvDms6h9s1ifT7B/sf2SO6e+uLW2nFrKnBfFVq0qMF/NVr1YUaUb7LnqTjHmbUY3vJqKbSk1GFWpJ2hRo1q9R78tKhSnWqzsrt8lOnOXLFOUrWipSaTPF/wASPBfgPU/AmjeK9Z/srUviZ4uTwJ4Itv7O1W+/tvxU+h614kXSvO02xvINNzovh3WL37dq8thpo+x/ZjeC7uLWCfuKI+/CVSOsIYiphZPa1elQwuKnTs7N8tDG4WfMk4P2vKpOcKkYEmozjTek5UKeJit70KtbE4eE7rRc1bB4iHK3zr2fM4qM6cpeV678XfDfh74vfD34LXtjrkvin4leFPH/AIw0K/tbawfQLTTPhzceFLbW4NWupdTg1GC+un8YaYdKis9Kv7edIL83d1YmK3W69A0jXNF8QWst9oGsaXrdlBqOraPPeaRqFpqVrDq+gapd6Jruly3FlNNDHqOi61p9/pGrWLutzpuqWV3YXkUN3bTRIR9+jRrL4a6xTin8SWEzDFZbVckrpJ4jCTcGm06c6Tlyzk6cW9JTi00qdSjScn8DqV8JHG06cZdZug5y5dJP2NZxUoU3M1KKAOE8bfEzwR8ObnwRaeM9bGiTfEbxtpfw58HF9O1a9g1bxprdnqV/pGiSXWm2F5a6VJqMGk3y2t5rM2n6dLdRw2C3n268s7a4yPEvxr+F3g/4n/Dn4M+JPF1npfxM+LVn4q1D4eeFZbPVZbjxHaeCrCPU/EskV/bWE+k2DafYyC4ji1bULCbURHcJpcd7La3KROknWlCFP3pVMTisHTjs5YnBZbDN8TSSdtaeXVIYnm+Cafsqcp1k6ampONFTdR8ip4Whjakmm4wwuKxtbLqFeckmownjaFWg7tODhz1FGnKM3i/ED9or4N/C7VPFui+OfGI0XU/Anwvn+M3i61j8P+KdY/sP4bW+sTaC3iO7m0PRNTgYzatb3VrZaNBLNr+oCzvbiw0q5tbO6niy/iN+098H/hX4q0HwP4p1Dx1feLvEvhe48a6R4d8A/Br4zfFnVZvClpqFvpNzrt3a/CrwB4zfS7CHUru1snk1X7E3n3MCBCZY90xkp/VuW7+uSxMMPZP33hJZnHEt6fu40Xk2ZOU6vJDkwrmpOFWhKo6jVJ14zfK8OqLrLdx+sQymdFRtf2kqsc9ypQhT55uWLUOXnpV40tTRf2hfhbrY+Hqpf+LtDu/ir4p1zwZ4D0rxv8LPip8PNd1vxF4c8Par4r1azk8P+PPBfhvW9HtofD+h6pqFtq2u6fpmj6kto1vpl/eXcsFvL2nxD+JHgv4VeHB4t8e6z/YPh9td8L+GhqH9narqmdb8Z+I9L8JeGrL7Jo1jqN7/AMTLxBrOm6f9pNt9ks/tP2u/ntbKG4uYtJU5RqUqbcHOtiMLhKXJUp1IzxGMlho4elz05SgnOWMw8ZOUlGlKbjWlTdOqoQqsXGUrTioUKuJkqlOpSlGhRniqc6jhUhGdlLB4jlXLzVIwU6alCpSlPuKKg0PmLxz+2F8CPh14y8W+AfEerfEO58TeArTRL7xrD4P+A/x6+I2k+FLTxHpx1fRJ9f8AFHw9+GnijwvpSX+mh7yP7ZrMRjhinM4iNvMI/c/BHjjwh8SfCmh+OvAPiTSPF3g/xLYpqOheItCvYr/S9Ts3Z4zJb3MLMu+GaOW2uoJAlxaXcM9pdRQ3MEsSOmnUouvCzpxdJS1UakPbqs6EqlGTVanCusPXlQqTpxhWjSnKnKUVczlVhCtHDyb9pOnOpC0ZOnONL2KqqFaKdGc6LxFGNalGo6lKc+SpCMoyS6qvFfil+0L8JPg3qWh6F468RamvibxLBcXmg+DvB/gvx18TfHOqafZyx293q1p4G+Gfhrxd4uk0a1uJYra51k6KNLguZY7aW8SeRIznKcYypQbfPWqKlSjGMpSnPlnUlaMU3y06VOpWrTaUKNClVr1ZQo0qk46WtGc21GFOKlUnKSjGKlOFOF5SaXNUq1KdGlC/NVrVKdGnGdWpCEszSv2o/wBn/WPhZq3xqtfij4ct/hroGp3OheINf1j+0PD9z4f8SWl3Bp83hPX/AA5r1lpvijRPGP266s7OHwhqmi2nia5ur7T4LbSppb+zWex8K/2lPg38Z9c1jwt4E8Taq3izQtKstf1Lwh4y8C/EH4X+ME8O6jMbex8SWnhT4n+FvB/iHU/DVzcgW0fiLTNNvNFN08Vsb4TzRRvtGnKVWrRhyznSpxqvknCdOpCeHWMTw1aMnSxb+ouOPlDCzrThl86ePnGOEqU60sHiaMYUqkpOMa1SVKKnCpCpTnDELByWIpSiquEX12SwKlioUYyx18FFvFJ0l7rRUG4UUAFFABRQBn6r/wAeE/8A2y/9HR0VrDZ+v6I5a/xr/CvzZx9dBoX/AC9f9sP/AGtTn8L+X5oml/Ej8/8A0lnQUVidh+an7fHwlh+Onjr9m74VPeSaZe+LbT9ouDw/rMMjxT6B4v0z4Qz634K8R28sfzx3Ph3xbpui63buvzLNYIRzXlHjX4rz/tifC/8AZ+8A3totvcL8P/Gvx8/aU0AJE0eg698AYtQ8HWngLVLaR5Ht2vv2kLZL6ztrlS95pfw11kEFRIR5WP1webUm+WpT+r5vl8E5KE62S5dm2c5rOvyXcYzpZJkuEdRq85VaFHmimpQMHeONozXu06uIr5Vi6r5vcnnTyHK8plSaWtbDVcbmmJp07xfuyqKUYQqzjs/A3xN4k0jwT/wRy0DSfEOuaXoXiv4Pz23inRdO1a/stJ8S22k/sqx6ppVvr+nW1xFZ6zBpmpwxajp8Wow3MdnfxR3lssdwiyDM+F3w48efGH4QftNfEbxf+0b+0RZeIvB/xw/at0v4Rf8ACIfFnxZ4T0v4d6X4F+IPixNBtrrSNEv7Oy+IcFtqNg8cOk/EhPFfh7TfDMWm+F9B0jR9PtJftPtcR16mHzXirF05P2mW4PiXM8NGSjOj9bwua5HSoyr0ailSxFOFPGYlexrQnSk6rcoSaRxZLSWIwPDuFm5KjjcVw7gsS4SlSqvC4jKc+nWhSr03GrQlOph8PJ1KU4VF7GDUk4xa9K+Ffxm8f/En4of8E7fEWseItWtYPjB+x18SviP478O6dqV3Y+Gdd8WXGhfAPVLfVdQ0C0lg0m7utLutf1o6PLPZu+kxanew2DQR3M4k+YLaz+Kt5+wr8b/2qrr9oz4/D4r/AAs8T/tNeKPhjJafE7xBbeENB0r4TfGT4g2WieEfEfgVJ/8AhFPiRomox+HXstRb4j6X4q1G00S7g0Pw/faLpml6ba2xmkPqNSvVw7SeXLiqeFhUTrUp4jA8Y5hhsG8ZTqOSxmGp5dQrYGWHruX7upRnTnTrYXD1aay9Tx2Gy+nXq1L4+vkWGxVWlL2NV0sZw19bxDw86aj9WqzxkKeIVWioyUlUjrTrVYT+nNa8O+Mvgb8Tf2NvGdj8avjN411b42/Et/ht8Y9I8c+P9a1/wF4vt/E3wj8deNv7b0T4c3k8vg34a6joPifwrp1xoUXw30jwxaQ6VJd6NqEWowTtLXin7U/xTh8VaF+0l8V/gc/7d2uaz8HtL8Yw6d8Uvht8StF8Cfs3/D/x38ItKuV1zTU8B+Mviv8ADrS/ir4b0zxDol1F8Q5h8N/isuoSvrel6De3U0Flpdtli5+w+szwyjD+w8TnVHDyxS9vho4LLMNkmKo4rONJVcznGvnlPASTo4mvXoyp1Z0alai8XR2y5fWngfrTqVVnuDyStXo4Wfsa8sbmeJzWlXoZU3VpQy+EsNksq9Plr4WhQlGtH20JYhQq/r54N1W613wh4U1u+8v7brHhvQtVvPJTy4ftWoaXa3dx5UZZikfnTPsQs21cLuOMn4a/bfvPGOn/ABN/YUvPAHh7w94q8Xw/tLeITo2geK/FmoeB/D+oSt+z38ZkuU1HxTpfhDx5f6THDZNc3MMlt4S1hri5hhtGit47h7y36cdSWGzSNCjHmjQz7A0aanOzcKec4eEeaajLVRV78ur7XuscLVliMlnXry9+vw9jatWcYr4quTV51JKCcY7ybUU4romkef8Axz8Q/tC6t8Z/2HLf4tfCf4SeBPD6ftTQy2Wq+Afjt4s+KGrXGrD4LfGBYrG50PXv2f8A4UWtnYSWr3c8mpxa/ezxTwW9sulSx3Ul1aeRar4t+OPx48ZftN63pnhP9tq91L4ffF7x38I/glf/ALPvxV+C/wAPPhf4Bm+G0Gn6fZ6r4k8F+LPj98PLz4k654h8SG48ReI4fih4J8WeHJvDOqaXpfh2zhtA8knHTTlSxccHVl7ejWz7MKDxNGMcNSzKjguAcFhXi6UJ4pYvAKhmFT2lOdConia1Fyw7jhlWl1VtK2GeLhFUK9LJMurQw2ImsVVwFbFcb5hiJYOtKGEeFxqqZaqamq9NRwvtnCuqteEIe5RP8QPFP7SX7CZ+MukP4U+J2u/sk/tExfEzR9D1ZLWTRPGN9bfASHxVb6PrXhnU51s2ttVkvTp9/oWsSNZkQzafqBeKKevmT4Q3eo/s0/8ABO74x/Hr4Z6v8S9T+JZ8efHfwVocfiT4oePfHvhvR77WP2tfFvw/0nxVp3gP4ieN7v4cWfiDSTeW3iHV/ENxY6Zc+IdQt9Qv/GGs3i6vrlzdb1lShBRy+U/Y4v8At3A4WajGq6dDEcb5zhMNiKVPGfu6VWlTxjrSqyVKo3TpTrVFLDUZUuej7WVLAPMVD21HMckrYtSqVKFOVeHDEcRiI154G83RdXCqE40lVjGhPE0aUJUsVXp1vob4QaJ+0P4R+N3wjl8L/D39s+y+HesJ4j0T9oS//al+M3wa+JHhy9tv+Ea1HUPDPjvwlpfh79oD4naz4O8WReM7XT9MvNB+H3h3w54IuvD+tXiy6FbvplhPB1f7NfgvWf2ldFn/AGkfiH8X/jfa67qPxi+IaeEvAvgb4t+MfAXw58EeEPhf8VvEvg3QfBGo+APCepaX4Z8Wz6nYeFkk8d3vjnTvEWrahfajf2dre6faQWkcOl6cK+HrxlRqLDUcX7DDQjVlBP69gqmFqY/29KCxvsMLVxmWxhWVf21GWFxmJq1MypfWHPJW9jOhUliI/W62DjiMTOVGEpSeAzFYujgZYetUeBdbEYTAZlH6u6EqVR47DYVUsBfDv1r9vXwxqmu/sufEXX/Dlsbnxh8I28O/HjwYqIXuP+Ek+CXiPS/iTawWwX5/O1O08O3ujlUIaWHUZYc4kIPwF8WNTX4w6z8ff27PB4l1PT/2U9a/Z3k+FF1Cple/8J/C2yh+L37RA00xuA8XinwZ8XNZ8JXbW8rC8uPC0dtIpEAzyYSpCjipVubkhw9j8JxjiZyfuyo1qmV5Hi8NFN2vVy/AVrN2SlKTenvR6cZSqVqVPBJKU+JsJi+GKDT9+E8HKWb0HFKS1jicdOpz2jK6UOdpx9ls/FPxdrOufCT/AIKmftWeCPEWsaDfwaPZfBj4TeNfDWsaho+s6d4d+BnhK3n1TVfDms6ZcwXumtN8TvHPjmL7Zp11A7y6XGcq8JZvfPiXrHxX0v8Ab2+HF18J/BPgfx/4gn/Yz8XJqWnfEH4m658MNNt9Mb4veCZJdQttc0L4XfFi7v8AUPti20I06bQ7GGSCe4um1VJLZLW60o06tHG8PwnBxqPL3ia1GT5fq9bNOBeJsyzKFNNOzjisXiaip6KpUSjKpG/tI4V6lOtgsdWhJpVMdUoupy2+sPKeMeCsrwE6sUo2i6OFpwUuWcqMKtScY1ZuSqdt8TfG3xgtvjH+wTYeMIrP4car4y+Mfxe0vx54K+HXxL8R+MvBmuaRpfwD+KesaDZatrV94O+Gcvim1ivNO0rX1sNY8GwW2k65bQyWhuprC31KTX/4KFf8m5xf9lz/AGYP/Wi/hhVRVNYvLfZynOC4lyFRnUgqc2v7UyWVnCNSqopTlOyVSSd3LRyaNajqWxSqRjBvh/EzcKc5ThzOWf01UvKFJuc6VKiptwTShGneUacWev8A7VnxR134J/s1/HL4teF7SG98S/D74Y+LvE2gQXMBubRdZ07SLmTTLm+twR52n2V55N7fx5UPZ286llBJHxx8SvBHjT9lzwN8JvjtoH7QHxv+IXjL/hZ3wW8L/FPTPiF8TNb8X+APi3o3xc8feGfA/iaHSvh5qUk3gv4e31hN4o/t3wTN8MdE8Kf2aumW+mXseq6fPdJJGGfLjqMpWqRrZlwzlvs5+9Shhc2zatg8zTptcv1nFUHh44HEtOvhKmGqPCzo+2xHtTHXeGUISdJ/2fxJjfaRk4T+tZXgsur5bUlNWksLha1avPGUeZ0MVSqqGLpVoUqajyfiH4ofHT4RftI/8FDvHXwh+C/hD4w2HhXwr8BPE3iHTdX+KWueB/FSHRfhJrN5FaeE/DWl/Cnx1a+MbmWzjvLmSyufEvhK5lktorCwN3cXiPD0vh66+Gnwa/ZE+E/g1/iN8WPiJrX7SfjPXvH3gyb9lm2vfDHj74l+Ivih4j1v44eJdJ+HBbWEk8CeCdP0nVNQt9T1rWPGPhp9C8M2klzfeKdF1m5R0zhGNTD8z9tLEwocO4CWHw8lTgsPmuIVWi6mKlVoySxkslpQrVIfVFl2GhmHNi5qtRxFGW/ZzoR5qccNzZ9mMcRUhKdWFfK8N7HE/wCyqnXhKOFhndadCLWJnjatPCyWHg41sLU679jLxP42tvjr+0r8JtZsPj94d8FeFfCvwO8eeD/Bf7SfxA8P/FT4ieFb7x/J8UNJ8SRWHjvRfif8YL6/8H6qfAukX+k6X4k8c6hq2lai2s+VaWGnXdos/wByfEax+J2oeHTb/CXxP4E8JeLPtsDjVviJ4F1/4heHzpyxzi6tRoPhv4h/DPUUvppTbNb6gfEUtvapHMsul3hmRoejFc8lSdOrhpz9lhozqUaUqdKoqPJRrXh7OgoYqpClNV6saLoRx0qtenRrYflpTvCKNOpiKVSOJUKdS9ONerGtXi8Vg6GNg5TVSp7ShTrYq9Gl7WFT6lGlh5VaNZSqw+Pf2Lt2i6x+1V4Q+I9rbyfGnw18bdP8VfG3xdFq9pqfgzxfqnif4deDNd8GeKPCNuNA8Mr4R0HTPBdhoekxeFdQ0+91Tw5d6FNLqXizxbe3EniO9vfCy5b9o/8AaXg/aZ8OWslp8F/hV8O/Gnwf+FXil4Wt5fjRrPjXxH4X1Xx1430Yusc1x8MPDj+CdM8P+DdTlD2fi/WLnxD4h0kvotno+o6mUXT+sZVUoRnDDYDh7B4mNOpJTnSoY7hSOQ5dgq2Iioxq5goZgqrqqnRhmFDJ81xFGnThS+rrOaqLDYylWcJYrMM5rSU6a/dVJ0eIo53jMbGhJznSwdSlhXCnTqSr1cvxWZZXh69addrEP7worM6gooAKKACigDP1X/jwn/7Zf+jo6K1hs/X9Ectf41/hX5s4+ug0L/l6/wC2H/tanP4X8vzRNL+JH5/+ks6CisTsPNvFPwu8P+LviB8LfiPqV5rEGufCO68Y3fhu1sbiyi0q9k8beGpfC2qrrcE+n3N5cpb6fK02niwvtNaK8CyXLXcANufMfA37J/wn+HXij9onxf4Xh1y11j9pnUP7Q8fPLe2E0GlGTTNSs7qz8HRjSkbR7C/1XXfEPi2+tr6TVxceKvEGraizC2mhsbfCrh4VoY2EpTisdleNymrKLipQw2Pq4GrXnRbi+Sv/ALBTpxm1KHsquIpzpzVRcrpN0qlGa95Uc0webKnJv2c8VgKFahhlVjFxc6MPbyrcjakq8KVWM4unEl8N/sufD/wtZ/svWOn6x4xmi/ZM8PXPhr4cteahoskmtWF18Ov+FZSS+NjB4ft11G7Gg/6WkmhJ4bhGr/6Q0DWX+gV1HgL4EeEfh34E8e/D7RNR8R3Wi/ETxd8VPGmt3WqXmmT6pa6p8Xte1jxF4lt9LmtNHsbSCwsb3W7uLQ4ruyvri2tY7dL+61OZJJ5d8w/4Uqma1a/uSzjC5jhMSqXuqnTzPE4HFYiVBT9o4zhUwFGNF1HVjGEqqnGpKUJQzwUFgY5fGi3JZbiMBiKHtLNznl2GxuFoKryqHNCdPH1pVVBU3KcabhKEYyjPlvA37Lfw/wDh/f8A7PWo6NrHjG5n/Zq+D+sfBPwKmp6hok0WreFda07wPpl1qHixbXw9ZPfeII7fwDo7293o76DpyTXOptJpUqTWsdnUh/ZP+HUH7OPj79mBNa8anwD8RYvizDrertqOhHxhar8ZPFfifxh4nOlX48ODRYGsNT8WajBoJu/D98LWxhsotQGqXEc91c3jKkscq6qpR+sf2nz+zurf2tmeKzbEcnM525MRi6sKN+bloxhGp7SopVJThaUcJHCxpuUlg6uBrUudpuUsvy/+zaKqcqjeMqHv1VHlcq3vQcIfuzvvGvwU8K+O734L3+r6h4gtpvgX44sfH/hJdNutOhj1HWbDwd4k8EQ23iMXWlXjXemNpXijULiWHTH0i6bUIbOVL1LaOe0uPnnxF+wR8OPEenfE7wg/xS+PGj/CP4tav418R+K/gloPjTw9p3w6HiX4gfbbrxNrGlzjwXN8QLG2vte1C68US+Em8dz+ALrXZpX1Dwle6bNcabLlWgq/1xVNYY6pj6uIgvglLMKeTwqRSd706U8jwNanTm5wqv6xQxkcVgsRUwrdGmqEMFGm5Xy+jl9HD1G17SKy6WaOnNySX7yrSzjHUKs4qLhGVKthfq2MoUcTD2Lwp8KfG2hfG678aXfjrVZPhX4f+Cng34V/D/4d2/iLWn0+TW7LWtU1Txf4+8X+HltrDwzL4mnsbfwn4f8AD2qWkV7eW+l22vIW06LURaP1/wAQfhB4a+JHiv4P+MNcvtctNT+Cnjq/+IPhWDSbmwgsdQ1nUfBXinwHPbeIIrzTL64utMXSPF2pXMUOnXWlXS6lBYzPevaxz2dz0Va869SlXqRh7enja2OlOKlarVnnOJzelGfM5TdOiq1LBQi5uUcLh6VOE4qMeXKlho0qOIw0ZSWHq4OlgKcOZN0cPDJcLk9SUGoQgqtd0K2PqNU1D63iaspRneTmvxG+EXhv4na78JvEOvX2uWl78HPiLH8TfDEWkXNhb2t9r0fhTxP4QW015L3TNQlutIOmeLNRnNvp8+l3n26GylF+LeOe2ufKPFX7KGjal438XePvh58YPjd8B9X+Is1re/EfT/hFr3gmHw7431mzsbPSovEuo6D8Q/h/8QrDQ/FMmkafYaXfeJfBMfhXW9TtLK1Op315cW8NwnNCCp83LKaVSvi61ZRk4OvTx2EyzCYjCVJQ5ZxwzeT5fioeylTxFLGYeFeniIuFOMOirFVWnJe9ChhqNKSSbozwmKx+Ko4mmpKUfrH/AAp4zDTc4zpVMHWqYedFwqVvaegj4F+GG+IXwk+JlzrvjLUPEvwc8AeL/h14fk1XWrfVE1zSvGy+D11rVvF93f6bca1rXiMv4J0yaHVItWsVkuLvVJr+2vpLiBrXz3wz+yD8OvDml/FPwTN4j8eeJ/gv8Wm8cz618BfFN74V1D4ZaFe/EjW5fEXjG+8Jz2vhDT/iNpUmp6zeanqFtZ3PxB1DSdFu9WvrrQtO026+yT2tTUakZU5xTozwmbYOVCLlSp8mb5jVzSrUh7KVOdKvhMTWksDUozp+yor2NVVoTq+0mEXTVFxqVPa0MXl+Np15ONSo62XYT6lBVFUjOlVp4nDuccVCrTnzyqSqUnRqRpyp63w1/Zx1D4ca/oOqSftF/tH+PtA8LWt5Z+HvAXxA8YeDNS8LWVvdWdxYQJqt9oXw88O+OfGz6Za3BXTZviD4z8WTw3ENrfzSXGoWsF0mTZ/sn6J4d8c6v4s+Hnxg+OHwv8PeJvG3/Cw/F3wo8FeI/CA+GfiTxZdakura9qL2PijwJ4m8VeGIfFt+rXHivTvAPi7wjp2tzz3d1cWovL28uJ9faN4mjipqM6saNWhibrlhmFOviMPi6yxUKTpxh7TFYTC1rYFYONN4eNKjGnh6lejVxWFhHDVMLCdWFL2lKrhOWd55dOjh62EovCSmpufs8NicVSX17645rESnVdSrSw1Sh9Q6hYWmqWF7pmoQR3VhqNpc2F7bSqGiuLS8he3uYJFOQ0c0MjxupGCrEHg14B8DP2Xvhh8APgPb/s6+EU1vWvACWfiyy1GbxheWOr+INfh8aX2p3mtnXb+y0vSrK+d4dUk0u3K6ZAsWlWtjZskgt978tShCpQzOg7xjm2DoYHF1IWVX6tQli5wp052fKpVMZKrNNSUqlHDysvZ+92RnKFbA11Zzy3FTxuEurxp4icIU51Lfa5qdOMWm7W6Xs1xmg/sU/Cbw3+yRqf7Gemat46T4Y6x4b8T+G9S8RT6votx8Q7uPxdrWoa/rWr3Gty+HDos2tzahqVwUupvDUlusKwxvZyeXuPsv/CnfDP8AwuTSPjh9u13/AISzRvhZqXwitdP+1af/AMI9J4b1TxNpHiu4vri0/sv+0n1xNR0W1hhuY9WisFspLiN9MkneO5i7a2InXzD+0ZqKre0xVRQimqMfrWXZllcqcYXco06WFzSv7GKn7k6WHcnOEJ06nHDC0oYKngYufsqahabknVnKOZZTmsqlSTXLKdTFZPh3Uaik4VsSkoznTnRf46+D/hr4geOvg38QdZvtdttZ+CHinxJ4t8KWumXNhDpmoal4o8DeIfh/qEHiGG60y9u7uxh0bxLf3NnHpt7pM8epxWk09zcWsc1lPn/Hz4JeH/2hfhnqfww8S+IfFvhTTtQ1rwj4hg8ReBbvRLHxRpGseCfFejeMtBvdLufEWgeJ9GV4dZ0KxaZb7Q76OW3EsSpG7rKnM4t+ycZShKjjMNjqc4W5o18JWw1el8SkuT2mFpcytdpzSkm049PuubnKKmpYR4KUJX5JUXLGSlflcZc0vrtZNqSVlTsk1Jy4nwT+zZd+H5PEtr4+/aA+O3x98J+LPCeseD9b+H/xpn+D+q+DLrTtc+zxX9xJZeCPg/4D1Se8ksIrrSvLu9XuNMk0/VNQjn06adrW4teT8L/sV+CtB1rwHca98VPjr8SvBnwo1i01/wCFfwp+I3jbRtb8AeBdZ0jenhjUIDp/hPRvG3jO58HQv5PhGT4n+M/HZ0ExW13Z7dQtLW8h2hONOvTr06NODgsJJ071Z06mLy7FYjF5Zj5qpVnP63l1bFV3huScMNNSj9aw+JlSoyp89Sh7WhOhUrVpqf1qmpt01UhhcfQw+HzLAw5KcYLDZhRwtGGJbhLEx5W8NiMO5Nv3Pwn8IfDXg74l/Fv4p6be63c+IPjN/wAIL/wlFjqFxYTaLYj4faBdeHNGGhW1vplre2wurG7kl1QajqOqefdBHtfsUIaBvAB+wz8NbDwn4a8K+FfHnxc8DSfDz4q+MPix8IPEnhTX/Ctv4g+Dt747Gpp4k8FeBV1XwVq+gXHw4vYtb1u2Xwn430HxjFFaapLZrd/ZbPSodPxUXGUJRnKLhRwdFJcrhL6jisDisPVnCUZQqVIrBTwsudSpvCY/MaKpr6zzQ0dKm6UqUo3jKpiZyleUZuOLwuOwtakpwcZRpP699YiouM44rCYKsp3oNT9J+Dv7NPhH4NeNvH3xH07xb8R/G3jr4o6B4I0Px74m+IniOy1+/wDEEvgK88YXOjayY7HRdGsdJvpLfxldaVNpmg2mleFLPSdI0O00Lw3o32a9k1DS+KPwS1f4ieItL8T6B8e/jv8ABzUNO0eXRJrP4Xa94Gbw7q9rJcz3K3WqeFPiV8PfiR4ZbWIWuZIotcsNJsNX+zrBbyXskVrbLDU7Slh3Feyp4VclOjCU3TnRVGrQjQrOpKpWrxjTq3VarVli5V6dLFzxM8XF15OMWliuac6lTFqi6taXKqkalGOEiqtH2cadOg5fU4KVGlTjhY06lXC0qFPByjh4eVa7+w/8ONa+Cnjj4LW/j74xaJH8U/E1t4t+K3xOsfFeiar8Vvidq0KWFvdQ+NNe8XeFPE2hajoWp6Zpem6Df+F7bwxZeGv+Ebs08OWWlWeiT3ljc914I+Bnjz4eXNne2n7S/wAavH+n6Ho15p+jfDzx1pH7OOi+ALh00mbT9Ftb9/hj+zn4J8Vadp+lTG1mtU0PW7VLf7LCklnfWayafPNSdWGHxlPDU6HPVw8KODp1nWjQwiweV08syuhCdGarzwuXQpKrho4mWLlTr1sXVftXi8RCrMMPDnw7qV8TFU6lWeIrQVCrXrSxmPlj8xr8lelKhTxGNqSUa/1aGFpzp0MLTjGmsNRlTxvh5+zx4t074U/s/wDhb4j/ABw+LuseP/hN4h03x/408VeHPiJrsUPxQ8XONZvde8LeMrrWre61TxP8J21TX7mHSvCd5/Zqw6Ro3h20UWcGn/Yz0PiL9nSHxFoHxr0Bvjb+0Roo+NXiPS/EUus+H/ihPpevfC3+y4dEhGhfBnUU0mQ+A/DuoDRPM1TTY4dRa9fVtZD3Cx3iR2/RVlRWJxU8PGX1eriMRUw9OtZyo0atfJ6lKnaMnb2VPJoU4pzqWjmecxc5/XnKmqMa1sJVxEo/WKUcLOvTpSk8LVr0Vmkq0XCUYc+HrVc1m50+SlGUcvypRp0o4NQl9DwxiGKKEPJIIo0jEkzmSWQIoXfLI3zSSNjc7nlmJY8mpKyk+aUpWS5m3aKtFXd7RS2S2S6LQunD2cIU+ac+SEYc9STnUlypLmnJ6ynK15Serbb6hRSLCigDP1X/AI8J/wDtl/6OjorWGz9f0Ry1/jX+Ffmzj66DQv8Al6/7Yf8AtanP4X8vzRNL+JH5/wDpLOgorE7Dx/4pfHz4SfBbVvhvofxO8XxeFdS+LnjCz8BfD+OfR/EGo2+ueK7+a0trPS5r/R9J1HT9CWe4v7OBNR8Q3Wk6X51xFG16HbbXUfEn4keCvhD4F8TfEv4i65H4b8E+D9Nk1fxFrUllqWpfYbGOSOHdFpujWeo6tqFxLPNDb2tjplheX93cSxW9rbTTSIjayoVYYelipRtQrV62Gp1OaL5q9CGGnVpcqk5qUY4zDNc0Up+1ioOTUkvMWcZc8XmeBWIf1rJsJhcdmNH2GI5sPhMbDFzwtaMvZcleNZYHFpLDSrSjOhOnOMZ2i73gXxv4Y+Jfgvwn8Q/BOp/214O8c+HNG8WeFtY+xahpv9qeH/EGn2+qaRqH9n6taWGqWX2uxuoJ/suo2Vpewb/KuraGZXjXqqeIw9bCYivhcRD2dfDVquHr0+aM+StRnKnUhzQlKEuWcZR5oSlF2vGTTTN8vx+EzXAYHNMBV9vgcyweGx+Cr+zq0vbYTGUYYjDVfZVoU61P2lGpCfs6tOnVhzctSEZpxRRWJ2HF+MviF4P8AP4Sj8Xav/ZL+OvGWj/D/wAKj+z9Uv8A+1PF2vxXs2k6RnTLK9Fj9ri0+8b7fqJs9Mg8nbc3sLSRB+0qlCTpe2S/d/WKuF5rr+PRo4XEVYWvze7RxuGnzW5Je05YycoVIwxVelLEVMKp3xFKhQxNSnyy92hiquKo0J8zjyPnqYLEx5Yyc4+yvOMYzpufkfxn+M3hn4H+F9N8SeIdL8TeI7vxD4q0DwN4R8IeC9NttW8W+MPGPie5e30fw/oNlf6hpGmfap1hury4u9W1fStK0/T7K8vtQ1C1trd5B2PgfxLfeMPC+leItT8GeK/h9fait0bnwf44Xw4vijRZLW9ubPydV/4RLxF4t8OM1wtuL21k0rxFqltLZXNtL56yO8UesaDlg6mM9pTjCGNlgIUpOftq1WnhaGLr1KcYwlBUcPTxeEjUnVqUpTqYmEcPCsqWIlR43mS/tn+xo4PGVJxyqnmtfHxjh1l2GhiMZiMFhMHVqTxMMTPHYueCx1anSw+Er0qGHwjqY2vhHisvhjOrorA9IKKACigAooAKKACigAooAKKACigAooAKKACigAooAKKAM/Vf+PCf/tl/6OjorWGz9f0Ry1/jX+Ffmzj66DQv+Xr/ALYf+1qc/hfy/NE0v4kfn/6SzoKKxOw/Mn/goD8Kofjd8RP2V/hVLdz6fN4yuP2kLHSdStbmW0uNJ8SWXwE8R6v4U1qG4gIlhm0TxRp2j6vBInzpNYxumGVSPMfGfxYuv2v/AIW/AD4dX0Kw6gvgbxv8cP2ldHjWaAaLrP7Oy3/hA+DrqF8GKDV/2jbWymtrC/RH1bwz4P1aVI5IBNt9esufKqKtFTy+is7wUbQ5Z1suhxVm+PlXTfNKnU/1cyTBzk4vldahTi06iPza7jxTnmHcpOhxFj6PDOY808S3ChmFHw2yPBRwcKScVXhQ4v4jxsnCdGpTjh5Ypv2NDEV8PJ8K9T8W+Lfgn/wTC/Z50bxx4t+G3hP4n/s6aZ4u+IHiTwJqsnhjxnrei/DL4S+CLrT/AAL4Z8X2ytqfhqTW9Y8QWmo+INQ0F7PXz4d0e9tNM1PTnu5buLqfG2ueOfgL4j/ap+BWgfE34neKvCD/ALFXjr9oP4eaz428a694u8e/CnxVo914h8J6jpem/EvWLy68c6hp2rST6Pr3hpvEGu6lqmg32g6mdM1BYpWWPv4gcVi88oKnS5s2qcc4+WIqKMsVhK+S4niH6r9Ur8qqUISXDTXsYSjTq/2vi511Wq0sBUwng8GvFQ4c4QzlY7MLZLlvhnw9RyzDYitHK8XgOIMl4Wp42ri8Aqn1bFYunieKKWLlmFWk8XgaeQ0MLg6tDC183p5lk+O9W+KXwT/Y88LfG+w+JHxf8e/Hf426L8A/At/qI8Xy6p4e8M3/AMYvEPgzS7jUfhv8N/Guv6f8K/D2t+HrXWLrTvC+va7/AGfearqMlld/EDxTqH2i+v0774F6Z8e/Cnx88GQaH8Ov2vNH+CfiPwv4rsPi7N+1P8X/AIVfFG30zxRp2nWuoeBvF/gi40X46/FXxfo2oarf2upaB4i8O6HaaR4LaLWLLUYdEtX09Z7TrrUsCq2dyqVMsweGw2b8RZJRoV8JWliK+HyrJqONymOEq4TA1qdHMZZvm2G+u4ytUwbxGGoYTDTrLCLFU540cXxHDG8IYHD5fxdneKrZDwRxVmOcZdneV0ckwGI4p4jzDL+KJZzgc84kwOOx+V0sm4exdTKcry/L84p5SsViK2X4OjmX1SpP3H9rPxN4k8Oal+yrH4e8Qa3oKeIv2tfhh4b8QJouq3+lprvh3UNE8ay3+g6wtjcQDU9FvZbW1lu9LvRPY3MltbvNA7Qxlfnr4WfDbxV8f/in+2tD45+PHx+0rwt4G/aKvfBnw48M/D74t+MPh9D4Mb/hU/wx1291C11LwtqOnatqNl9q1qF9M8I6pfXngfT7ldWv/wDhGp77XL+4fwcvlGll+b4v2VGriMJh89q4SWIo08RSp16Vbw3p4epUoVYyp14YZZjjp0qFROi54qvGpCdHEYilW+v4nhXxudZHlX1/MsHgcwzzIMNj4ZbmGMy3EV8HV4V8YMZicLSxuBr0MXg1isTlOV1K2IwlWjib4DCzpVqVfD4avR+f9cGoftFfs6f8E7/HHxN8W/ES98W6l+1B4b+G+v654a+I/jj4fz62nhfXvi34Nn8Vy23gDX/DVlYeMtUTwpb6h/wk+mW9prely3l7b6Tf2VtczxSfVVh4O1b43/tEfGb4Qa38VvjR4Q+F/wCzV4I+DPhbwf4b+H3xh8e+DPFnibXfHfhTWNc1L4gfEL4g6RrUHxF8Z3dpb6fpWk6Cdb8VXmm6hqWneJNQ8RWWt6jcTzH18RKFN5zQpUMPSw+V8RcUYzCUvqmFqU4ypx4WwGGo1qtajOriYYeWeyxNLD4qdfD1o5bhMNiaNbB4anQh8xl+ElmNbJMVVzPOljOLeFOBcFm+Ljn+cYSrUw0ct4lzfGTy7CYLG4fL8qzHMv7DhhsVmOTYXLsfQp4/M8ZgcVhsZWdZ+sfsbeOPGXiTwv8AGDwL438Tah461P4C/H3x98FNO8e6z9iOv+MPDfh2w8N+IfDuo+JZdNstPsbrxHpuleK7fw3rOoQ2scuq3miPqt8X1G+vHb7Brw8wUPb0a0KdOisbl+U5nKjSi4UaFTNcrweZVaFCMpTlHD0amKnSoRlOc1RhBSnKV5P9H4br1q2VuliK9XFVctzTPsiljMRKE8RjVw7n2ZZFDHYiVKlRpvEY2nl0cXX9nShTVatNQiopBRXCe8FFABRQAUUAFFABRQAUUAFFABRQAUUAFFABRQAUUAV7u1nvLeS2tk8yaTZsTcibtjrI3zSMiDCKx5YZxgZJAJWkZJLV9fPyMalKpOScY3SSW6Wt2+rXdHD10Ghf8vX/AGw/9rVU/hfy/NGNL+JH5/8ApLOgorE7DzDxf8J/DnjT4hfCP4lape61b678GdS8Y6r4XtNPubGLSb+48b+EL/wVqqa/BcabdXl1Db6VqM9xp66df6W8WoJFLcyXdsr2j+d+Cv2U/hV8P/Ff7QvjPw3Hr9vrX7St0l148afUbS4ttK/4lmp2Nzb+DoG01RotrqF/rWs+JNQguX1NbvxFql1eyH7OILOHeeIqToYjD+7GGJybFZHOSivaRwmLzHDZnWqUpy5vZ4l1cNGgqiXI8LVrUZ0p+0c146yPBf2lg80k688RgeJ8NxZQg6rjQeZYXh2vw1So1qdOMHXwCwVd4r6tWlNrM6OGxsKkJYahCGdd/skfDef4R/Bj4UWWu+PdBuP2fdG8N6T8I/il4f1zTdK+K3hGTw34bj8Irqdrr0OhHQrq417w8s2l+KtJvvDFz4V8RWd3c2mo+HpbUwwQs0D9krwNpfh34x6br/jL4mfELxf8d/CV34G+IfxX8da7oN/8QbrwrLpes6Vp2h6Euj+F9C8DeF9K0CPxDrF3pGleH/BOn6X/AGjeyXup2WpShSvVjMyrY6ObKvTouebVcdUnWjGp7XBQzKpTq43D5fKdScaNCvOmnarGvUpxq4yFGpThmOYxxfk5bwZl2VzyH6rjMz+rZBluW4CngJ1sL9TzKtk+Bnl2WZrmsKeDp1cRmeEwVWpRU6FbC4Ou44OrisFXrZTk1TLvS9a+CHw+8UfBiD4DeKtNufEnw/i8H6H4Ke31G8eDVZ9P8OWVhaaRqX9qaSmmy2WvWU2mWWp2uq6Umny2eq28V7YpatHGqct8NfgJq3w98RWmvan+0L+0L8UbXTNJudH0jwx8S/FPgu98O2FvcFB9qu08JfD7wdrHirVreNPKttY8caz4o1OMM8xunuj9oBLMalStmNath8NWeY18Ri5U6kKrpYXGYqFSnWxeEjGtFxrSpThSbryxFOSwuCnUpzq4LC1KXYuHaVOWSSwmZZpgP7Gw2FwNRYWpg0s6y/BKEsJgc49vga8p0MPXjPEUp5c8uxUZ4nG0PrH1PHYvC1u0+Jvwk8N/Fa4+G1z4hvdbs3+F3xO8O/Ffw+NFubC3S88ReGbPV7KwstYF9puom40WaLWbpru3sm0++kkjtzDqNuqSJLD8N/g94Z+F+tfFzXdAvtdvLv4z/Em4+KXiiPWLnT7i2sPEFz4T8K+DpLPQEstM0+W10caZ4Q02dLfUZtUvRfz30rag1vLb2ttyU686WGxeFiounjKeMp1ZSTc4xxtTh+pVdNpqKcZcOYFU+aMklVxfMpudF0O3FZPhsXmGBzKpUrxr5fjMHjqMISpqlKrgcs4qymlGrGVKU5U5Yfi/Mp1FCpCTrUMDKM4U6WIp4ny7w9+yH8NvDXw7+C/wzsNb8cS6D8C/izJ8Y/CV3d6loMmr6j4nl8QeMvEbWPiOeHw1BZ3egi+8catELXTLDSNQ+yW+nIdUM0NzPd7HxK/Zo0Hx543b4meGfiL8VPgn8RL7w9B4S8SeLvg/rPhfTLzxn4ZsZbybSNK8W6T418H+OfC+ry+H5dR1N/DmunQYPE2gDUr6LSdbtILhoq6ZZjWnXrVpwpSWIzLMcyxFH99GjWnmmEwuDxeGnyVoVVhnRwlN0XTqwxWHrv6zRxUMRTw9Sj5n+qmChltHLsPjMwws8JlWR5XgMxpSwUswwD4eqYirluYYaWIwNfCPHKeJqLFRxGDxGX42g54PFYCrgsRisNX9E+Efwk8G/BPwTY+A/BEGpDTLe91TWNR1TXdWvdf8S+JvEmv38+reIvFXijXtSlmvtZ8Qa/qtzcX+o3kzrEryLa2NvZadbWdlb+mVz4mvPE16lecacHNrlp0YKnRo04pQpUKFKPu0sPQpxhRoUo+5SowhTilGKR7mX4GjluCw2Aw8q06WFpRpRqYmtPEYms1rOvicRVcqmIxNeo5VsRXqN1K1ac6s25SbCisDsCigAooAKKACigAooAKKACigAooAKKACigAooAKKAL2m/wDH7D/20/8ARUlFBrDZ+v6I8xroNC/5ev8Ath/7Wrafwv5fmjzqX8SPz/8ASWdBRWJ2BRQAUUAFFABRQAUUAFFABRQAUUAFFABRQAUUAFFABRQAUUAFFABRQAUUAFFABRQBe03/AI/Yf+2n/oqSig1hs/X9EeY10Ghf8vX/AGw/9rVtP4X8vzR51L+JH5/+ks6CisTsKu6/ubySx0y1trie3toLq5e9vZLG3iiupbiG2VXhstQlklle0uTtECoixZaQFlUz/wBneKf+gfoH/g/1H/5maq0eraflFNa67uS/IlKrK7hGDjdpOVSUW7Oz0VOVtU0tdbX6h/Z3in/oH6B/4P8AUf8A5maP7O8U/wDQP0D/AMH+o/8AzM0Wh/NL/wABX/yY+Wv/ACUv/Bs//lIf2d4p/wCgfoH/AIP9R/8AmZo/s7xT/wBA/QP/AAf6j/8AMzRaH80v/AV/8mHLX/kpf+DZ/wDykP7O8U/9A/QP/B/qP/zM0f2d4p/6B+gf+D/Uf/mZotD+aX/gK/8Akw5a/wDJS/8ABs//AJSH9neKf+gfoH/g/wBR/wDmZo/s7xT/ANA/QP8Awf6j/wDMzRaH80v/AAFf/Jhy1/5KX/g2f/ykP7O8U/8AQP0D/wAH+o//ADM0f2d4p/6B+gf+D/Uf/mZotD+aX/gK/wDkw5a/8lL/AMGz/wDlJBFLdJdXFhf28Nte20Ntcsttctd20ltdtcxwSxTyW1pISZLS5jdJLaJkaLI3KysbVJqz01Wnlur7a/mCvbVJNNppO6um07OyutNG0nbdLYKKQwx/kc/547fyooAKKACigAooAKKACigAooAMH0/z2/P/ADnPBQAUUAFFABRQBe03/j9h/wC2n/oqSig1hs/X9EeY10Ghf8vX/bD/ANrVtP4X8vzR51L+JH5/+ks6CisTsJPD/wDyH9c/7A/h3/0t8TV2lN7/ACj+SNKXwf8Ab1T/ANOSCikaBRQAUUAFFABRQBwmo/8AI06h/wBgDQP/AE4+JqfTe/yj+SOfrL/FL/0phR/9f9KQBRQAUUAFFABRQAUUAFFABRQAUUAFFABRQAUUAXtN/wCP2H/tp/6KkooNYbP1/RHmNdBoX/L1/wBsP/a1bT+F/L80edS/iR+f/pLOgorE7CTw/wD8h/XP+wP4d/8AS3xNXzR8W/2fvi/8bvjRb3HiP43+Ofhv+zd4b8E2Q0HwV8CfiJ4q+F/xG8X/ABQvNQ1Jdb1j4g+MPDWnaZrkXg/SNEbTIfDWgeHPGEEd9q5ur7XLXyreGC6mUOevhnOU1QpyrVK8ac+Sc2sBilgkna0oU8zlga9elKUYVsPSrUqqrU5zw9a4uf1WtGk4RrzdOFOpOKlGnB5hh3jWk7pVKmXRxlChU5ZSpYirSqwdKpCNal59+wT4+8a61qH7U3wm134ieIvjL4L/AGePj1cfC34bfFnxhd2ereL9e0iLwh4d1vXPCfirxHY2dlH4r174e+IdSvfD994muom1XU8xjU5HuLfe1H4yah4w+Pn7ZOk/sp2HxJ+Inwv+Fvw++A8Px1+Jd78JPF194A8d+NvEnijxxceDvAvhB/HGhSQeK/D3hfTbPRfEOvarF4av9JvNZupLCzvb77HEIZL/AN9q5A6lqH9pZVgc1xccMvYReK/1NrcSVKdKEfdpYetmeHjGrh4L2Twc6uFpxhCUXDGM5YTB5wlKU5YHNcZlGEliGsRUWHlxdT4cpznUlaVXE4fLa8q1HE1HKp9bpUsTW9vJVI1d/wDY88a+NtE+KX7UX7KXjvxx4l+Jz/s5eJPhzqfw/wDiB43vIdU8daz8Lvi74OfxH4e0jxnrkNvbN4k17wnrOk+I9FfxNfxLq2tWCWE+pme6jku7j0/9q74hftAeEfCVh4c/Zv8AhvbeKviB4ytPEkbfELxTqFtpvw1+DOj6Np0M97428YAibU/EWoo15DH4U8F6NZT3fiG/hupbqW20vTL9n483xFRZZHFRcaFWvlGBxOMrYeCp08LXqZbRrZvi6FGKUIrD4hYythcNTUaU6kaOGo+zpzg492WUUsXLCTU66o42vDDUK1WVSpWoVJvE5Pgq+JlyzdSvgq+Aw2Jxk5TnCdSpiKs6s4zlPw/9jjSfEX7TP/BOT4CwfEX4p/F+z8TePfh7o+q+I/ib4N+I/iPwr8VZ9QtfEtzqDXVv4/sbltetpLz7FHYXxS4xc6TJNprAWshjHyzovwD8Qaj+3n4P+EPwd/am/bS1PwT+znp/h34s/tM6r44/aj+J3jbQtV1jWrhb74W/A1dC1PVRpNwfFFtYXPifx2mo2l/BN4LCaVF9ku9S3n3a8Y4LifFUqMITwsM1zPF1sPXp08RQo4PK6NeVOjGFSEnRwuLxdDL8sm+ZU418yjJKVerCFTwaE6uO4awOJq160cXVyvLKcKtCo8PVrYvNamCw1TESlSS9pUwVPE4jM401Fc9PBVKXNRpylXpfuFVPUL6DS7C+1K6Fy1rp1nc31ytlY3up3jQWkL3EwtNN023u9R1C5McbCCxsLW5vbuXZBa2808kcbeb/AF2/M9v+u/5HkH7P/wC0L8J/2nfhtpfxV+DnieLxL4W1G4utOukkgl0/XPDuu6eypqnhrxTod2qahoPiDTXeM3OnX0SNJbT2mo2b3emX1je3NP4f/tJ/B/4p/Fj4r/BjwB4mk8UeM/gpHoSfEaXStK1O68MaDq2vS6nFH4ZfxdFat4en8U6WdMk/trQYtQN/p8krWzxPeabrttpNunNOomrezV5+XvKPzu2rW3WqMlWptUmpaVv4as7v3XJ3XSyVpX2ejszvNR/5GnUP+wBoH/px8TU+pe/yj+SI6y/xS/8ASmH+f8/5/KlP9B2x15/yaQCUUAfzwf8ABQvxH8T/ABR/wUp+AfwA0r9rL4t/syfDPx38JJ7/AMRa94I+KPiHwRoOmahpsHxH1iDU7uwtvE/h7w/LfapcaDpuiG7vpUnkSe3iSSWSO3hPWf8ABO342/GvQ/24vjR+yJqH7TGpfti/BLwf8OpPF2jfFnVryLxLqGja/DdeEkFm/jNNT8RXV6pbXdR8P6np134k1W0fVNMjvNKXTZItVtZ/0DK6ODxHD+HwVbKMNV9twxxVnk86jR5cXhcdlfEGY4fA4ariox9+nXpUadOnSqTUvZwcIRlSX7v+TMyzPiLLvGDMs3wnHecwovxW4O4EXAGLzB4vI8dkGccB5HmeZ47Lcoq1ZTwONy/FYmtmFfG4OlGglzSxE6dSo44v4Ks/ihe/ED9qz9sbw38dv+CnH7RP7KvhvwJ8Xda074aaPonxN+Jc+j6vYT+KfF9tqWl6Zpth4jisdGsfDNtpmixW1pawQwCLU1jhjVIAo+5P+Ch/jXx58Jf+Cd37MU/wY/am+L3iWfXPiN4N0y3/AGhNJ8beL9D8dfEPwz4i0jxbqVvqus6zY67aa7qlvPHNZSCzv9UZJ1sLMuY2jjMWksPVq4bgfA0sgwLwuNxnh5fOfqcKVfMMVmGFwn1zL8TiZRaxNLFVsTiFilJSVR4ZOuptniYDM40cn8fOI14r8V4ziXLMq8aKb4PlxPiMZQ4RwOT5/mlPJ87yfK1iKeIyjFYPC4HCU8vqQrUeSni3HCToU5RUfpH9gv8Aa21eD9gX4h+Nfjf4l1XxD8Rv2TdS+LfgX4qaz4r1S91HX9Z1bwDPe61osmq6nqlxcajfXt9pWo6R4f8At17cS3N5qVjc+bK84c18J/8ABIj4vftN+Nf2y/HukfHb4v8AxT8Y6d4q/Zom+MmleCPF3j7xb4h8K+Ho/HvjL4da94XutF8Pa1rF5pGmMnhXxBF/Zz2NhZtYaZqkmm26x2xcSOlg8tnmnHOIWFw7wtTJo5hktF4ekqGDp5vl2Z51z0IuLhTngqNPL6GHlTjCVOFRyg4KTjL3MVxNxPVw/wBHLLqef5isXDNZ4bjrE0sfjKNbPK/D2aZBwY6OYxhWjPH0c2zTFZ3jsUsZ7ajWq4CM/Z80049z4Q8a/tX/APBUX9pX9oPQPh5+0v46/ZY/Zq/Z78RJ4U0z/hVi3mleM/F2rT6hrOk2U91rWj6zoGpSyamvhvVdcvpbvWrjT9Fs5NG0uz8Oy3OoXuqW/cfBb4sftO/sUft6eAv2LPj58cfEH7R/we+Ovh2TUPhn8QfHcbnxxoGtyQaz9giudavNQ1fXL43GraHJ4Z1LTtT13VLV21DSNd0f+yJDqGn3ueGweVKngeEq+W0qmY5tw0sxnmqnUjjaPEOLyN8QYbD4esrSpZb9WjHDqEZwlRUlzRqVvaYgTznj2ri6njPDi/MYcM0/FD/U6PAk6NGOQrw/jxuvD6nj6tJvXieGaT/tStma/wB6lJYeFSjgI06D9P8A+Cf3xO+KHgP9sz9tT9jf4y/Ejx/8Qrjw3rFp8VPg3qXxI8Va/wCLdWi+H15dRwXVhYap4i1HUZ4tOj0vxJ4ImttNtZYreK5h1q6SHe1wy83+yJ8Vvix+0p+2F+3t8bU+JvxBb4C/CXT9V+Efwr8D2/jDxJb/AA8k8SWtvLb3HirTvC8Oqf8ACPNrdhYeE5dSfUo7EXQfxpbXkc3meXLXkY6jQeEzDPVh8PDDVPCmjmkKFGlShTw+cZhhskyKOJp0owjGGKp5jLMcXTqxjCpRq+1rwarU039nw/nGc4jGcDcHSzbNK2Z4b6RXE3D+a42ri8XUxOY8JcLYrjLiejhcZiataTxOAxuVx4Vw06dSpVoYrAVY4VU/Z1fZR/I/9kf4l2/xe+HOreI/2i/+Cvf7TvwB8cWvjHUNF03wZ/wtT4q6x9v8NwaTod3ZeIfth8UMqfbNSvtV0/yMjy/7L8w/60Gv7G/D1k+m6BoenSanda1JYaPpllJrN87yXurPa2UED6neSSPLJJdX7Rm6uHkkkdpZXZndiWPtceU/qtd4SlkOBy/ArFQeCzLC4GGEqYxwwdKeKoOcYpVoUauKim4KMFKEXaTa5fmfow4qlmnDiznE+J3EfGvEWYZXhamf8PZ5xNVz6nwxWjjsdTw08Ph69WpXy2eOo026kcRKdSvGnFRko0ZJ7FFfnZ/Uwp/z2689PT/62PZKACigAooAvab/AMfsP/bT/wBFSUUGsNn6/ojzGug0L/l6/wC2H/tatp/C/l+aPOpfxI/P/wBJZ0FFYnYSeH/+Q/rn/YH8O/8Apb4mr8mP2+f28vDPhf416X+xdY/HTQ/2aLfVfClp4s+Ov7QWqG9l8SeDvB2ryKtl8Pvg/YWen6gF+KnjDTZBcjxZqUS6b4I8P3X9saet74h+xRWeVWnTxNbCYKu6kcNja7pYuVFSdV4Sjg8RjsTh6XJGUoVsfRwk8uoVk4/Vq2Mp4m7dFQlpGtPC4PF42lGnOtg6ftMPCrFyo/WK+OoYLD1a8V8WHwtbFwxmJp71sPh6tGNpVItfSPwC/aP/AGAvhJ+y94g174FfEnwxF+zv+z7DYWPjTxB4c0rxf4hl0fUNduoC2q+IY7PQLzxT4l8R+I9S1BdR1jVY7DU7/UL28nvbyQLvaPgfin448Kfs0/t1aZ+0x8UNQbw18BPjp+zLonwmk+Kl5YapJ4W8H/EfwV481Dxf4c0zxlqNvbTReFNO8Y+F/FF+dG1XWo7Gwm1XRZtPluYrl1R+uvVnDNcNisZD6vGnWxNKquSVOGGnnXDGb4XJ6FOj8UKNerjcFhcNCEXToQq0Yz9nTg3HjhGhVyipSwlWeKcvY16NRt1a2KeQ8RZNjM9r1ptRdXE0qFPFYnESl++xdf2joQxFeXs5ZH7P3xQ8D6J4x/bv/wCChnjW81Twd+zl45u/hHo3gbxnrHhfxWlx4l+HXwW8HTaDf/ErTvDNrpF34nvfC/iPxZ4s1O38MXdtobXWrabp39oRWhs5IZ5P0r8Q6lZaz8O9c1jTZvtOnat4L1PUtPuPLmh+0WV9oc91azeTcRxTxebBLHJ5c0UcybtskaOGUeVndOcMix9CcJU6+C4YwEcfQlZTwmMx2S4ipUwtRf8APyjjMHmOHqQTlKhPCyhW5ZShz+tlFenWzbBV1KMo43N6iwlWF5U8XhcoxOAy6njKMuVL2OIwjy7FUm0lVhioypSqxjOa+Mv+CXc0dt/wTw/ZYuJW2xW/wotppGPRY4tS1aR2OMnhVJ6HpXNf8Et7N/En7Pnin9obVRNL4s/ap+N3xd+NWu3V3IJ7uLTLjxnqng/wToizDJTT9C8HeFdHtbCzVjDZ+bcJCFDstfR5kms/4mrpq1JYrLpp/E5ZtntLH0Zxf8sI8M4iNSL1bq0mn7rR89lNpZBwvR5kpqGXY+MWl71LB5BjMDWkm02nCpnWFVk02qj3SaP0moryz2z8p/2i/wBgL4p3nxT134ufsSfG/wD4Zf8AEfxz8vwn+1Bp9pYtdeHfFvh2+eX7X8VfCGjwW8sOi/G7RYZbuOy1iyfRJtYm1O51NfEnhzWJdb1DxH9y/s6fs6fCz9lr4WaF8I/hHoX9keHNI8y71DULyRbzxF4u8RXixf2x4v8AF+seVFNrXiXWpokkvb2RI4YYY7bTNMtrDR7DT9PtN51uenGNrS09pL+dQXLTv/hje/d69DlpYf2dadTmvD3vYwf/AC79o1Krb/FJJrsrrY7jUf8AkadQ/wCwBoH/AKcfE1PrF7/KP5IrrL/FL/0ph/n/AD/n86D/AIfy5pAFFAH86H7cXwe+HXx8/wCCxn7K3wl+LPh4+Kvh/wCLvgxrEXiDQRq+uaEb9NJ0P4v69pwGq+G9T0fWrU22raXYXYNlqNv532fyLjzbWWaCTsP2DJrD/gnt+2N8V/2B/H+maVpvhb4y6rH8Rv2cfifNpVpZap4wtPJu4bLwR4j8SLbxT6xcRWFtd2Wh299cyJpfinTNc02yMk3i/TYT+h5ZiMRX4ey/huNRxoZzwzxHjcLTXLzVM5yji/Ncyp0aailWqyx2W5bi6CouUqXtaNCdOEa7ftv5Dx2U5Xk3i9xJ4pSwkJ4/JfFnhLg/OMZV9tVhhuGOLvDXhzJaGJUHOWGwtTAcT5tlDljYUqdf6pjsZSrVp4dRpR+B/g98fv2JfgZ+2P8At/P+2R8K/D/xNh8TfGm9X4fLrvwh8K/FYaLLpHi/4hnxObZPE0E40M6gmpaAJmsgp1EWcYuCfsUOPtL/AIKo+Pfhf8Tv+Ce/7LPjr4LaJD4b+FOvfGjwJJ4E0C28PWPhO20fQLHS/GGl2un2vhvTQNP0W1tmsZIraws1S3hgWMRoi4Ud+EwebvGeGeYSq1VkEsz8KsNQoPFN0fr/ALHKvaVYYJVHGEnLDY1yrunGUnUk7v20m/loZ/wBW4I+knw5l+DwEfEXC5P4/Y/PsbSyRUMwq5K8+z6OEo4rPvqtOWNpRjjMudLCLF140owinCDoJR+ev2z/AAR8S/Bv7bXxn/Y18AwXtp4H/wCCj/jL4EeM7jUbd8R6HFY+JL0fEO9trQRur273Vvr2qa7IJImFjYW29ZIggg+5f2fdB0nwv/wWq/aP8MaFZxafofh39j7wJoOj6fAoWCx0nSIPgXp+n2cKgALFbWdvDBGoAARAAOK4MBOlLJ8pcXGdbMODuLIZhJJpVXw1kXDPCeEsm2oxSy3HVWoqKlPEzcryVz6iWGxcOPuIaVelWpYPh/xi4Ly/K4zlCVPm4w4v4v8AE/MZ0mo88YqhxjkmBhTlJpYfLcNLeXJT+ZPgv8UtR/4JCftKftO+EP2hPh18RL79n744+L4/G/w0+LXgvw6da0SC4tb7Xr2zsLvzbnT7JpZ9J8QppmtWttfSaxpGq6JYEaTc6Vqp1Kz7X4aax4t/4KWf8FIvg7+1F4J+Gvjrwd+y7+zb4dxpXjnx1oh8PyeNPEFqdevrC20Rorm8s9TurrxLqtjcTWWm398uk+HdKe61x9PvdX0/TrnowlKOIrZXxw8VhYYbLeGaUMXSlXi60eJMDw3LhyGU+x1nJ1qzp4ipWTs4S9pRjUoTjVjzTzPHUaNX6PzyXO63EM/FeOaxxry2ssql4b/8RHh4jUuLHmSjDDww8sNBZVQw6arLHUpYKtKliY2nq/8ABW258SfsoftGfAz9ujwFZ3Ky6v4E+JHwL8atpxaIz6pq3gzxJbeCb7UWEkUcwtW1qbUbdZnC+f4Q0/biaKDP2t/wTa+BT/Aj/gnp4VstUtpIfF/xM8H+JvjH41muBKL251f4gaQ+oaSt955M63lh4Oh8M6XeRykOt5ZXLuqySSZ+ax1eP/EM8xxDlF4yd+Gqy0bjgsFmHFnE9LVJPmlHOctV1J2hD2c4p04M/SOGMvqf8TN4vA+zrRyzK8PiOPsHzRl7D+0OL8m8NODJuL9o4qpHEcF8U1YpwUYxzCrOi/a4jGpfgb/wTh/aj/4JzfBX4H+IvCv7W/wT8L/Eb4k3nxM1rXdI13WvgN4J+J93b+D7rw54TstO0yPxB4jtpr+1gg1fTtcuV0qNhbQSXcl1GPNvJif7G9A1Ww17QdE1zS1dNM1nSNN1XTkkiEEi2Go2cN5aK8CllhdbeaMNErERsCgJAzX0XiHg83WYVcdialV5RPEUKWXUamKdSnTrSwFFYmdHCqpOOH9pUwspVZclOVVqEpKT+H476KOfcAY7grB5Nw7g8BR4xyvKsPLjLF4XJI4DF4mVXMcxeXLHZr9VoTzaUKU5qi/b4qOHSnHmp80VPXor83P6vA/4fy57/wD1uvTiigAooAKKAL2m/wDH7D/20/8ARUlFBrDZ+v6I8xroNC/5ev8Ath/7Wrafwv5fmjzqX8SPz/8ASWdBRWJ2Enh//kP65/2B/Dv/AKW+Jq7Sm9/lH8kaUvg/7eqf+nJBRSNAooAKKACigAooA4TUf+Rp1D/sAaB/6cfE1Ppvf5R/JHP1l/il/wClMKP/AK/H48f5/X1QBRQAUUAFFABRQAUUAFFABRQAUUAH+frRQAUUAFFAF7Tf+P2H/tp/6KkooNYbP1/RHmNdBoX/AC9f9sP/AGtW0/hfy/NHnUv4kfn/AOks6CisTsK1vdT6Tqd3fLp9zqMN9YWFo0dlJZJcQSafcalMrst/d2ULxTLqRGUnMiNDzGVfcup/wlUn/Qta/wD9/PDn/wA0NVZPXmS0Ss+a+iS6Ra/EUajgnH2U5WcmpRdOzUm5faqRatez06XWgf8ACVSf9C1r/wD388Of/NDR/wAJVJ/0LWv/APfzw5/80NHKv54/dP8A+RK9u/8AnzV++j/8tD/hKpP+ha1//v54c/8Amho/4SqT/oWtf/7+eHP/AJoaOVfzx+6f/wAiHt3/AM+av30f/lof8JVJ/wBC1r//AH88Of8AzQ0f8JVJ/wBC1r//AH88Of8AzQ0cq/nj90//AJEPbv8A581fvo//AC0P+Eqk/wCha1//AL+eHP8A5oaP+Eqk/wCha1//AL+eHP8A5oaOVfzx+6f/AMiHt3/z5q/fR/8Alof8JVJ/0LWv/wDfzw5/80NH/CVSf9C1r/8A388Of/NDRyr+eP3T/wDkQ9u/+fNX76P/AMtMnzZ77VLzVZbSaxSay0+whtrmS2kudtjNqVw08v2Se5t0Ej6iUREuJSFh3uVLhRbpPfR30Sv6JLrZkpt6tNXbdna6u20nZtXtvZtX2b3CikMX8Pz/AF6YOO/+PdKACigAooAKKACigAooAKKAFz7D/wDVj145/wAegxSUAFFABRQAUUAXtN/4/Yf+2n/oqSig1hs/X9EeY10Ghf8AL1/2w/8Aa1bT+F/L80edS/iR+f8A6SzoKKxOwKKACigAooAKKACigAooAKKACigAooAKKACigAooAKKACigAooAKKACigAooAKKAL2m/8fsP/bT/ANFSUUGsNn6/ojzGug0L/l6/7Yf+1q2n8L+X5o86l/Ej8/8A0lnQUVidgUUAFFABRQAUUAFFABRQAUUAFFABRQAUUAFFABRQAUUAFFABRQAUUAFFABRQAUUAXtN/4/Yf+2n/AKKkooNYbP1/RHmNdBoX/L1/2w/9rVtP4X8vzR51L+JH5/8ApLOgorE7AooAKKACigAooAKKACigAooAKKACigAooAKKACigAooAKKACigAooAKKACigAooAvab/AMfsP/bT/wBFSUUGsNn6/oj/2Q==&quot;&gt;&lt;font face=&quot;Lucida Console&quot;&gt;&lt;span style=&quot;font-size: 14px;&quot;&gt;&lt;br&gt;&lt;/span&gt;&lt;/font&gt;&lt;/div&gt;&lt;div&gt;&lt;br&gt;&lt;/div&gt;&lt;div style=&quot;font-size: 14px;&quot;&gt;&lt;font style=&quot;font-size: 14px;&quot; face=&quot;Lucida Console&quot;&gt;Select ESP32S3 Dev Module from Tools -&amp;gt;Board Manager.&lt;/font&gt;&lt;/div&gt;&lt;div style=&quot;font-size: 14px;&quot;&gt;&lt;font face=&quot;Lucida Console&quot; style=&quot;font-size: 14px;&quot;&gt;Select Huge App(3MB No OTA/...) from Tools-&amp;gt;Partition Scheme ...&lt;/font&gt;&lt;/div&gt;&lt;div style=&quot;font-size: 14px;&quot;&gt;&lt;font face=&quot;Lucida Console&quot; style=&quot;font-size: 14px;&quot;&gt;Select OPI PSRAM from Tools-&amp;gt;PSRAM&lt;/font&gt;&lt;/div&gt;&lt;div style=&quot;font-size: 14px;&quot;&gt;&lt;font face=&quot;Lucida Console&quot; style=&quot;font-size: 14px;&quot;&gt;Now upload the firmware to HMI.&amp;nbsp;&lt;/font&gt;&lt;/div&gt;" style="rounded=0;whiteSpace=wrap;html=1;align=left;" vertex="1" parent="1">
          <mxGeometry x="39" y="560" width="740" height="470" as="geometry" />
        </mxCell>
      </root>
    </mxGraphModel>
  </diagram>
</mxfile>
